/* XPM */
static char *_682254214ac4678e8a83b7a84927a5aGecZVTrLrLgyJKaT[] = {
/* columns rows colors chars-per-pixel */
"63 39 247 2 ",
"   c #7C1F3C",
".  c #7E223D",
"X  c #3E0D6D",
"o  c #2F097E",
"O  c #3D0D75",
"+  c #32077D",
"@  c #350A7D",
"#  c #3C0D7B",
"$  c #3D1075",
"%  c #3E107E",
"&  c #5B1656",
"*  c #5E1857",
"=  c #55155D",
"-  c #5B155A",
";  c #5C1A5D",
":  c #63174E",
">  c #661A4E",
",  c #6C1C4C",
"<  c #731E45",
"1  c #791F45",
"2  c #721C4B",
"3  c #7B1E4B",
"4  c #611755",
"5  c #641A53",
"6  c #6B1A53",
"7  c #63155C",
"8  c #6C1758",
"9  c #6C165D",
"0  c #63195A",
"q  c #731A53",
"w  c #761858",
"e  c #7B185B",
"r  c #6E204B",
"t  c #752045",
"y  c #7B2142",
"u  c #64295F",
"i  c #6C325E",
"p  c #74385B",
"a  c #430E6D",
"s  c #480F68",
"d  c #5A0E6C",
"f  c #4D1465",
"g  c #4B136C",
"h  c #4A176C",
"j  c #531462",
"k  c #5B1563",
"l  c #541D65",
"z  c #5B1963",
"x  c #52166D",
"c  c #5A146A",
"v  c #531A6C",
"b  c #5A196A",
"n  c #410E73",
"m  c #470E78",
"M  c #580D74",
"N  c #451274",
"B  c #4B1474",
"V  c #44127B",
"C  c #4B157B",
"Z  c #4C1978",
"A  c #521673",
"S  c #5A1473",
"D  c #541975",
"F  c #531B7C",
"G  c #581978",
"H  c #5A1E7B",
"J  c #6C0F6D",
"K  c #631463",
"L  c #6B1364",
"P  c #621B63",
"I  c #63116B",
"U  c #6B136B",
"Y  c #661B68",
"T  c #731563",
"R  c #72136B",
"E  c #7C146E",
"W  c #791869",
"Q  c #640D73",
"!  c #690D79",
"~  c #780F76",
"^  c #730A7D",
"/  c #7C0C7C",
"(  c #691677",
")  c #711575",
"_  c #781777",
"`  c #5B2464",
"'  c #592667",
"]  c #5B217E",
"[  c #5C3473",
"{  c #652467",
"}  c #632C62",
"|  c #78246B",
" . c #6A3966",
".. c #7A346B",
"X. c #65267D",
"o. c #782571",
"O. c #673E77",
"+. c #713870",
"@. c #7D4459",
"#. c #7A4959",
"$. c #71476E",
"%. c #7C4969",
"&. c #6D467E",
"*. c #77477A",
"=. c #7B5477",
"-. c #8E262E",
";. c #892534",
":. c #84233A",
">. c #A4723B",
",. c #851B56",
"<. c #862A52",
"1. c #871769",
"2. c #9C1D68",
"3. c #830C7D",
"4. c #841C74",
"5. c #86157A",
"6. c #961577",
"7. c #87276C",
"8. c #842B6A",
"9. c #863867",
"0. c #923266",
"q. c #882672",
"w. c #922773",
"e. c #843271",
"r. c #B02876",
"t. c #8D584B",
"y. c #874958",
"u. c #95465C",
"i. c #895456",
"p. c #945654",
"a. c #A34A5C",
"s. c #9C634E",
"d. c #9F6D4A",
"f. c #996557",
"g. c #A1664C",
"h. c #A16250",
"j. c #A37152",
"k. c #864668",
"l. c #875564",
"z. c #8D6369",
"x. c #926764",
"c. c #886274",
"v. c #B68136",
"b. c #2E0783",
"n. c #2E0983",
"m. c #2E088A",
"M. c #300785",
"N. c #340B84",
"B. c #3A0E83",
"V. c #320C8B",
"C. c #3C0E88",
"Z. c #3E1185",
"A. c #3C128B",
"S. c #3C178A",
"D. c #390E98",
"F. c #3B1492",
"G. c #3E159B",
"H. c #3F13A2",
"J. c #441484",
"K. c #4A1682",
"L. c #441C83",
"P. c #4D1A84",
"I. c #44138A",
"U. c #4C158C",
"Y. c #45198C",
"T. c #4C198A",
"R. c #531C83",
"E. c #541886",
"W. c #5A1B85",
"Q. c #52168D",
"!. c #531B8C",
"~. c #431495",
"^. c #4C1592",
"/. c #431993",
"(. c #4A1B94",
"). c #44159C",
"_. c #4A169B",
"`. c #451C9C",
"'. c #4A1C9D",
"]. c #531791",
"[. c #551991",
"{. c #5C1B93",
"}. c #52199B",
"|. c #6C0A81",
" X c #790A82",
".X c #631F95",
"XX c #681F96",
"oX c #4A2287",
"OX c #542787",
"+X c #5B2184",
"@X c #5C238B",
"#X c #5C338B",
"$X c #4B2598",
"%X c #4B229C",
"&X c #52249C",
"*X c #572B9B",
"=X c #612583",
"-X c #692A8A",
";X c #653A87",
":X c #662096",
">X c #6B2297",
",X c #6B2894",
"<X c #6D2398",
"1X c #72259A",
"2X c #78279B",
"3X c #7B2A9D",
"4X c #6D3593",
"5X c #4415A2",
"6X c #4A1CA3",
"7X c #4819A5",
"8X c #511AA8",
"9X c #4D18B5",
"0X c #521DB4",
"qX c #4D23A3",
"wX c #5325A5",
"eX c #552AA4",
"rX c #5224AA",
"tX c #552BAA",
"yX c #5A2CA8",
"uX c #5B31AC",
"iX c #5727B2",
"pX c #5E34B3",
"aX c #653DA6",
"sX c #663CB7",
"dX c #694286",
"fX c #744A89",
"gX c #7E5681",
"hX c #6B4496",
"jX c #724693",
"kX c #724A9B",
"lX c #6946A3",
"zX c #6742AC",
"xX c #6C4BAB",
"cX c #724AAA",
"vX c #7555AB",
"bX c #6D49B1",
"nX c #7453B4",
"mX c #7B60B0",
"MX c #5720C0",
"NX c #7B55C1",
"BX c #830B82",
"VX c #890982",
"CX c #920C83",
"ZX c #9D0D83",
"AX c #AF0B85",
"SX c #815381",
"DX c #846386",
/* pixels */
"c.i.' O - , 4 O } s.z.z.s.h s > , a $ } s.c.i.' + , < > - O p z.x.i.$ a = 2 & O p g.c.l.@.h s , < O h y.f.DXs.' O 5 , = h N y.",
"y.' h f w ! I > g i @.y.} - 6 Q ^ 1 j h h i.} ' : d ^ R 6 = p p y.N f 0 3 CX7 & X p y.p ' f < ! Q 2 f v  .p.' h 5 c |.w 4 f ' ",
"' f * 6 1.8.R k 4 l ' ' v 7 L | 8.W q 5 f ' ' ; j ! 9.8.E & l u ' f 0 ,.2.a.E - - ' } ' l 5 U | | L 5 ; ' ' l 4 7 ) 9.W T 5 g ",
"a = q ,.w.k.o.M , f a N f T ( 9.k.5.,.3 - N ; = M _ l.k.5.9 X l O * 3 2.r.j.q.I , a N a j 2 ( %...) 3 0 j @ = 2 I _ i.q.E q s ",
"& 2 1.6.l.jX*.| M , - = < | 9.fXhXp.w.1.. - 4 d _  .cXfXy.VXj f & 6 6.u.d.nXl.4.d > f & 9 / y.lX;X9./ 3 < - < ! 7.+.cXl.9.BX5 ",
", |.| k.hXxXlXi.CXK 1 y M ..$.zXnX&.+.( E., T ZX>.NXlXlXkXg.6.:.>  X@.dXsXmXsXi.CX; ;.e _ 9.O.lXnXl.q.Q c < c 5.p.vXlXhX*.u.VX",
"k 6 R 5.k.fX*.0.J 2 ; z t 8.k.fXjXy.4.E , j 4 L 4.%.kXfXy./ & = 6 7 5.9.y.aX%.q.I y j 0 w / u.kXfX9./ w 0 x , J 7.*.lXk.9./ 5 ",
"7X; 0 9 q.u.9.) 1 C }.}.x 1.4.u.y.5.e q 0 6XA 4 M ( h.u./ K m _.)., 8 E 6.i.w.U t I.8XE.k 3 5.h.y.~ 2 0 G 0XA , U o.g.w.E 6 = ",
"eX0XT.j e 3.J . b D.tXpXH.t :.|. Xy * P.0XtX~.].= n ZX6.4 g 0XqX`.8Xg - w AXd , C m.uXrX_.z -.VX|.2 v _.iXsX7XP.4 M ZX,., j 9X",
"K.A.5X8X= 1 , G D.qXS.Z.eXK.z < 1 n ).5XV.C F.6X}., ;.y - 8X'.M.*Xm.8XU.a 2 = Q.V.sXN./.6X5Xj ;.  K.7XF.B.N F.5XU.0 :.* Z 7X~.",
"N A.'.wXU.W.Q.~.'.A.V B F._.^.!.W.~.6X`.A.B A.qX6XQ.W.W.U.tX`.O K.A.6X'.^.W.]._.~.F.g K.`.wXI.W.W.).qXF.% x N.`.).!.W.Q._.qX/.",
"B K.(.%X'.&X6X7X`.@ B A % 6X6X&X&X5X`./.V B % (.`.5X*X&X7XqXP.n O K.`.'.'.;X6X5X~.b.x B P.%X7X&X&X5X%XK.B b O /.`.6X*XqX6X`.K.",
"F P N V.OXdXOXuX+ g B B x '.uX[ dX`.F.V z H g x F.`.gXfXqXM.P O % g A.F.S.=.S.qX+ @ C b b n.uX&.;X`.# b { X.g O /.oX=.*X`.V.z ",
"K.F b z Y.qX%Xa o # P.R.V O # %XqXV x b H K.# O 0 pX'.`.%Xz V K.B.F 0 D /.%X%Xj @ n.R.C N N B.%XtXB g B F W.C N x *X`./.V j C ",
"B.=XF N n B g @ @ P.Z.Z.+X+ @ a B @ O Z X.I.R.+XB 0 O O g C -XN.M.V N N O Y.g O + @ M.R.=X# + n j O V =X+XY.R.V V z # O O V =X",
"I.J.R.] V n B K.M.N.C.C.Z.B.# g n V ] R.J.U.Z.J.X.g @ # N ] J.M.N.B.=XH N N.g H n.M.C.I.K.K.@ n n C P.K.T.{.B.K.H x O O V R.Z.",
"{.Y.P.R.V C F J.b.I.].[.U.B.B.D C J.R.!.Q..XI.N.+XH # % C R.C.U.U.I.+XR.C N.D P.M.I.].U.I.Z.N.V Z K.K.T.{.1XU.Z.K.H V V K.P.C.",
">X[.Q.T.K.K.R.B.M.{..X:X{.N.B.R.P.Z.T.!..X<X[.N.T.X.J.J.P.T.I.{.{.U.Q.P.K.N.H J.C.{..X{.U.A.N.K.H Z.I.{.<X3X.XC.J.+XJ.J.K.Y.U.",
"{.>X.X!.Z.Y.T.b.{.<X.X{.1XI.M.!.K.N.U..X1X{.XX{.B.!.B.Z.Y.Q.{..X.X:XQ.T.K.N.!.C.{.1X{.:X:X[.b.K.T.N.{.<X<X{.1X{.C.!.J.Z.Y.Q.:X",
"<X{.>X<XT.oXT.{.2X[.>X<X!.XXQ.J.oXU.>X>X[.1XXX1X[.@XoXP.!.>X:X<X{.{.<X[.I.#XZ.{.<XQ.1X:X.X3X].L.oXU.2X.X.X3X[.1X{.!.oXT.{.<X{.",
"{.1X{.[.4X;X@X3X[.2X{.{.3X<X3X#X;X2X[.{.3X{.<X[.1XK.dX;X.X:X{.{.XXXX[.{.,XSX@X<XQ.3XQ.:X1X.X3XO.OX2X[.1X1X{.2XU.<X@X&.4X<X{.:X",
"XX{..X.XT.oX!.I.1X[..X:X{.[.I.@XP.I.:X<X.X<X{.{.I.K.L.P.T.[.U.{.{.{.{.{.!.oX@XU.<X[..X{.{.<XI.P.P.I.<X:X>X3X{.:XU.!.OXT.[..X[.",
".X.XQ.K.J.K.P.N.b.<X{.{.1XM.N.K.K.B.J.!.1X.X{.C.I.-XZ.Z.P.I.U.[..X[.T.K.J.N.F Z.N.1X[.{.{.B.M.J.R.Z.A.:X1X.X1XC.Z.+XZ.Z.Z.A.{.",
".XB.R.+XV C D K.b.B.[.{.N.B.V G B C R.P.A.<XI.N.-XD # % C -XC.[.U.A.=X] A N.b R.M.M..XU.B.P.B.B B R.K.J.Q.3XI.Z.R.G V V K.+XN.",
"I.@XW.F V N B V M.K.I.I.T.B.# N N O F +X@XU.T.P.H b # O B F @XA.N.T.H Z n N.g Z N.N.A.T.!.J.@ O B V P.@X@XT.T.K.C x # O V C !.",
"J.=XH B % K.V O M.K.Y.T.R.@ @ # K.# C H =XY.P.R.x A I.J.n A @XZ.N.P.D N @ Y.O B N.N.I.!.+Xn + Z.C V C +X@XT.R.C B B S.B.O B +X",
"@XC A x A.%XF.O n.B.@X-XV @ N.~.%X@ n N C @XJ.V z V.uXqXN.P P.!.K.% x V V.tXM.n o M.-XW.C N b.wX`.O N C +X4XV O N A.tXA.# g V ",
"V P N M.oX;X$XqX+ B V V x /.&XOXdXF.N.N { C N B C.yXfXdXqXM.b @ B.x B.N.S.gXS./.@ @ Z.A x n.wXdX;XF.@ x { +Xx O A.$X&.*X/.n.z ",
"x O &XuX6XwXiXG.%X+ x b @ '.`.iXwX5XwX%XO x # Y.qX9XeXwX7XsXn g N # wXrX0XOXiX`.F.b.b B K.pX).yXrX5XeXK.B { @ (.`.0XyX6XqXtXO ",
"V /.`.5XF Y A }.F./.V V `.^.E.b P ~.).G.A.N A.wX7Xg | Y K.7XeX@ Y.F.7X~.J.| B _.F.`.O Y.'.G.Q.Y b ^.5XF.Z.g A.`.).A | H ^.5X%X",
"Y.).~.K.c L k G _.'././.qXP.S K L x T.~.).Y.~.6XK.4 L L z T.qXA.%X).U.A z ) - K.).eXI.`.'.^.b L 7 A (.~.~.K.)._.K.k U Y D U.6X",
"`.).F b 9 U L = {.qX6X6XrXS - U R 4 x T.`.`._.^.& 3 Q U q P ~.`.wX_.x 0 q ) 9 j }.uX`.`.}.( & Q T 4 E.(.`.`.6XU.k w ! L P G ).",
"5XB 0 2 ) 4.5.- & 8X).).}.k I 5.q.d 7 b T.).Q.5 y ZXo.) / . b 5X9Xx , L |...3.0 = MXG.U.G 6 M _ 6.L 5 F ~.F.7X4 8 6.o.( U , x ",
"B t L ) 9.$.y.VXx , g g t Q ) #.=.q.G c < C & 3 AXv.[ +.p.CX:.a ; t ^ ..i.aXt.BXk r V 0 2 ! _ } i.6.S 7 k J.5 K 6.h.OX..o. X:.",
"< ^ 8.k.kXxXlX#.BXI t <.Q ..$.zXxX*...o.! < T ZX>.nXvXcXkXs.6.. ,  Xy.SXbXvXzXy.BXk :.e _ 8.O.xXxXl.q.( L y k 5.y.cXxXhX*.u.3.",
"> L 1.w.gXxXhXy. X6 > 6 8 8.%.lXxXi.q.E 9 5 9 ^ u.hXbXkX*.0.J , , R 7.k.c.nXfX9.^ > > 8 R 4.#.zXzXy.5.T 6 5 6 / 9.jXbX*.k.q.U ",
"s & 9 W e.%.9.4.q - f g = W q.%.%.q.W 9 & a * 8 _ k.%.%.8.R & = f 6 R | e.=.9.E q = f j 7 T q.%.k._ 9 7 j O = 8 W 9.%.e.7.W 4 ",
"p v ; 4 U BX3.y a v i i v & q VX3.0 * z Z p ' = :./ VX/ I > u u ' O , - M _ ^ 1 X h p u l j 6 CXVX, = l } y.' f , ~ CXR 7 4 g ",
"i.} ' j 7 T w = l p p.p.i ; & e T - j ' i i.@.f - ,.R L 6 ; } s.y.} f j k S w = ' @.s.@.} ' - W e - v i y.t.@.f = w R 7 ; l ' "
};
