/* XPM */
static char * carpet3_xpm[] = {
"64 64 32 1",
" 	c #BF5A54",
".	c #A96957",
"+	c #B6655A",
"@	c #A16E59",
"#	c #967358",
"$	c #8D7959",
"%	c #83825D",
"&	c #7B8B61",
"*	c #3FA55E",
"=	c #A88671",
"-	c #9C8A70",
";	c #4EA463",
">	c #76976A",
",	c #6B9B67",
"'	c #60A167",
")	c #BC8579",
"!	c #6FA151",
"~	c #949576",
"{	c #899B76",
"]	c #85A259",
"^	c #5AB275",
"/	c #81B26F",
"(	c #9FAC53",
"_	c #B8A191",
":	c #ACAC46",
"<	c #96B26C",
"[	c #76BB88",
"}	c #99B492",
"|	c #BCB13C",
"1	c #ACB19A",
"2	c #8BC093",
"3	c #D5B734",
"|:<[[<|::|2[[2||::<[[<(|:|:222|:|3(2[[(|||(222<3:3|222(|||:/22}|",
":(<[[/:::([[[[(:|(/[[/<:::<2[[(:|:<2[[<:|(<222/::|(2[[<:|:(/222(",
":<[^[[(|:<[[[[<::/[[[[/(|</2[[<:|([[[[[(:</[2[[<:(][[[[]::/[[2[/",
"([^^[[<::/[[[^[(([[[[^']:/[[[^/(:]^[[[^]:/[[2^^/:]/[[[^](:[[[2^,",
"!;^^[^']]^^[[^^!!;^^^^;!!;^^[^;!!!^^[^*!!'^^2[^;]!;[[[;'!!;^[2^;",
";***^;*;;**[[***;**^^***;**^[**;;**^^^**;**^2[**;;*^[^*;;;*;^2^*",
"'***^*;''**^^**''***^**^,;**[**',[*^^^;',;**2^*;,,^^^^*'>,**^2;*",
"{';*^;>&&,*^^*'>&'**^;'>&,'*^*,&&{;;^^;>%,;*2;;,&{>^^;'&~~'*;[;,",
"#>'**'$$$%;;;;>$#>'**;>##%>;;;{$@@';*;'$#%,;';'%##$;;;,#.@>;;''%",
"#%>;;,$--%,;;;~-#~,;*,&#--&';'~-##>';;>##-&'''>-##$';;&#.@%,;'>%",
"~%%,,&~~~-&,,>--~~%,,&~~~-~&,&-~~~%>,,%~~~~>'>%-~~~>,,%~---&,'%~",
"{~-$%%~~~~$%%$-~{~-$%%~{~~-#&$-{}}-%%%%{{~-$,%-~{}~%%$~{}{~$%>-~",
"~{~.@--~&~=@@@~{~~-..%{~%~_)#=~>{_~#.@>~&~-.#--~&~-#@.{~~&{=@#__",
"#>{  -=%&-_  ){&%{~  ~{@%-__+_{&$.}. +[$$-_) =_-%@). +}#@${_) _)",
"@&%+ _.&,#1  _%&$~~+ -~.%$=_+_%&$ 1)++}@##=_+__#%.++ +~.+#%_)+_@",
"{#@=_)%>,%)__=$&&##-_..~>%#)_)$&&%)=_).=~%#)_))$>&$)))@-~~#))_)#",
"{@.-_)%>&$.__@#&&@.-_+.{>%#._@#~{&+)_).={$@._).${&$)_).~}~@.)_+$",
"#$#++=@%&@)++)#%$-=+ =-#&#@_.=#%%.-.++~#$$@).==#%@@.++-#@$$))._.",
"#~-+ =#$%-=+ )-$$~-  =~#%-==+=-$$@~.  }-$-=)+=--$#=. +~$@#~=.+_=",
"-~~++-~$-~=.+@1-$~-+ -~-$~~=.=~$$~{@++}~$~~#.=-~#-~@+.{~$$1=..-~",
"~1~..-}-=1-@@#1--}-..-{~-11$@#1--{~#..}{-1}###-}-{{#.@}{~~}-##~}",
"1--~~$}11~$%~%~11--{~-=}1~~%%-~11}=-~%=11~~%{$-~1}~~~%-}}1-$%{$~",
"1-%,,%~}1%&>,>%11=%',%$~1~&>>~$11~$>,>@_1-%>'%%-1~->,>#-11$&>,-$",
"@&';;,#%%%'';;>$#&';;'>@%%>[''%$#.,';;,##%>'',,$#.@''',.+.&'''>#",
"#,;**;%%&>;;;*,%#,;***,$$>'^;;>%#@';**;$#&,^,;'&$@$;;;'#.@,;;''%",
"&'**^;>&>'*^^*;&&'**;*'&&,;*^*'&&~;;^^;>%,;*[;;,&%>^^^;~-%';^[;,",
",;**^*'>,;*^^*;,,;**^*;,>'**^*;,>>*;^^;,>';*2^*',>'^^^;>>>;*^[*;",
";***^*;''**^^**;'***^**;'***^**'';*^^^*;'**;2^**'';^[^*'''**^2;*",
"'**^^^;//**[[**''**^^**;/;*^[;*'!;;^^^*;';*^2[;*!;;^[^*;!!*^^2^*",
"]'^^[^/:([^[[^[(('^^^^']:/[[[^[((/^^[[;](/^[2[^/:<,[[[^](('^[2[/",
":<[^[[(|:<[[[[<::/[[[[/(|(<2[^<:|(/[[[/(:</[2[[<|:<2[[/(::<[[2[<",
"|(<[[/::::[[[[(:|</[[/<|::(22[(:||<2[[<:|:<222/:||:2[[<:||(2222:",
"|:<[[<|::|2[[[||:(<[[<(|:|:22[|||3<2[[(|||(222<|:3|2[[(|3|:/22}|",
"||([[<3((3/[[/|:::([[<:|(||22/3::3(2[[(|:|:222<3(||2[[(||:|<22<3",
"::([[<|((|/[[/|:((([^<:|(||2[/|((|(2[[(:(|(22/<|(|:2[[(::(|/[2<|",
":</[[[(::<[[[[<((/[[[[/(:</[[[<:|(/[[[/(:</[2[[<|:]2[[/(::<[[2[<",
"]^^^[^/((^^[[^^]!'^^^^^](/[[[^^((/^^[[^!(/[[2[^'(!'[[[^!((^^[2^'",
";***^^;''*^[[**;;**^^**;';*^[;*'';^^^^*;';*^2^;*';;^[^*;''*^[2^*",
"^***^**''**^^**;'**;^**;';**[**''^*^^^*;'**^2^**^';^[^*;''**^2;*",
">'**^*,&&;*^^*;>&'**^;;>%';*^*'&&>**^^;,&';*2;*'&>,^^^;>>&;*;[*;",
"#>'**;&@#>*;;*>#@>;*^;,%@&'*;*>@.%;;*^'%@&'*'*;>.$&;;*'%#@,;;';,",
"$&,*;,%@@%;;;;~@@&,**'>$@->;;;~@@$,;*;,%#%>;;;,%@$&;;;>$#@&';;'&",
"%$%;;>$_=@,;;'@-~$&;;>%$_@$,;,#-~$%';;&%~$%';'&#~$%';;%%%~$>';>#",
"{#$';%-11.~';>.~{#$';%$~1).{'>@{2-=>;'$&}==>;>-@2~$,;,#{>2#~,;~@",
"}{%$&%1}}1#&&@122~$$&%&}}1_.&#},21-%%%>2[}_@;%=}[}1&&%%}22{#$'#1",
"}}~.@-1>>}=##@2>{{~..~{1>}_)@=}>>1~#.@>}>}1)$@=}>11#@@}}}{}=.$-1",
"#{~.+_=$%~1  ->%#~~. ~1@$%~1+_{$#@1= +}=#~~_ )~-#.=. .}=.@{=) 1-",
"#--.+=#$%$_++=%$$-=.+=-#%%-_+=%%$@_=++_@#$-=+)=$$@@.+.-#@#-))+_$",
"%@..))$&&$@)).#%%#.@).@%{%#.)@#%&%@@)))=~$#)_)@#~%$)))@-~~#.)))#",
"{.+@_+%>&# __+.~{.+=)++~>$. =.@{>,+@=) -{#.+1).#}&%=_)+~2}.+)1.#",
"~.  )+#{{. ))++~{.++++.-}@  )..~}%..)+.-{#+ _).@}%#))+.%{{.++_..",
"$=)  )#--=)++.=--==  =-$~#@..==--%-. +_--==+.=--~$$.++-$$--.+.=-",
"$1_. -~..}~++-1=@11. _1-.~}%.~1..>1@+.1-.~}$ -{}.%{. .1-#@1-@+{}",
"-__#@-{==}~@@%}==1-#.=_~={>&@-1)=}~=@@__=~{%@=~})~{#@#1_==1-#@~}",
"1==~~-}11>$--${11-=~-@=}1{>%-#~_1}@-~-+__~~$~@#{_}{-%%=_11-$$~#{",
"}-#{}$}}2>#{{%>}}-#>{@@}}>&%{#~111.{>~+_1{%%2@@~1}~~{{._11=$~>.~",
"_%&''&~}{%>,,>%{~%&''&$-}%%>,&%~1=->',%=1%%>'&~$1-=>,,$=__$&>,-$",
"#&'*;'#%%%[;;^&%$&,**;&#%%&[;'&%$.>';;'$$%&'''>$%@$';;>#.#&'''>$",
"&,;*^;>%%,*^^*'&%';*^;'>%,'*^*,%%&;;^^'>%>';[;;,%&,^^;;&%%'*;[;,",
",;**^*;>>;*^^*;,>;**^*;'>;**^*;>>'*;^^;'>;**2^*;>';^^^*',,**^[*;",
"'***^*;''**[^**''***^**;,;*;[**''^*^^^*;';*^2^**,;*^[^*;;'**^2;*",
"];*^^^']]^^[[^;]];^^^^;']'^[[^;]][^^[[*']'^[2^^^]/'[[[*']];^[2^^",
":/^^[[<::<[[[^/(:/^^^^/(:</[[^/(:<[[[[^]:]/[2[[/:(<[[[/((:/[[2[<",
"|<[^[[:||([[[[<||<[[[[/||(<[2[<||:[[[[[:|(/[2[[(|:([[[/:||<[[22("};
