/* XPM */
static char *afd8562dc38d4725f500a14eaf0c89acq5ds384ESU2wJJz5[] = {
/* columns rows colors chars-per-pixel */
"64 42 246 2 ",
"   c #447D3C",
".  c #5C7D47",
"X  c #796943",
"o  c #677848",
"O  c #74744B",
"+  c #6A7E50",
"@  c #797C55",
"#  c #7C7C55",
"$  c #AE3E36",
"%  c #B53A35",
"&  c #B93936",
"*  c #CB2C33",
"=  c #9C4E3B",
"-  c #895B3D",
";  c #93543D",
":  c #99523E",
">  c #A84539",
",  c #AB453B",
"<  c #A44C3D",
"1  c #B3403A",
"2  c #C73C40",
"3  c #8A5E41",
"4  c #935C44",
"5  c #9C5945",
"6  c #A44F40",
"7  c #AD4C42",
"8  c #B84C46",
"9  c #A35444",
"0  c #AB564A",
"q  c #A35C4B",
"w  c #B7534C",
"e  c #AC5E51",
"r  c #BB5A54",
"t  c #886546",
"y  c #846C4A",
"u  c #95654D",
"i  c #83714F",
"p  c #8C6F52",
"a  c #946C53",
"s  c #9A6A53",
"d  c #9C6853",
"f  c #867655",
"g  c #8A7355",
"h  c #847C5B",
"j  c #8C7B5C",
"k  c #94745A",
"l  c #99735A",
"z  c #92795D",
"x  c #A66857",
"c  c #AC685A",
"v  c #8E7F62",
"b  c #947D62",
"n  c #9A7964",
"m  c #9B7C64",
"M  c #B76B62",
"N  c #A37562",
"B  c #A87A68",
"V  c #B8746A",
"C  c #BA7D73",
"Z  c #C64B4C",
"A  c #C65B5A",
"S  c #D25055",
"D  c #C5615F",
"F  c #C76866",
"G  c #D66A6F",
"H  c #C4726E",
"J  c #C67974",
"K  c #308D47",
"L  c #2C994C",
"P  c #34964E",
"I  c #2C9D51",
"U  c #3B9652",
"Y  c #339D53",
"T  c #3A9D56",
"R  c #3C9E5A",
"E  c #29A24F",
"W  c #2BA252",
"Q  c #32A256",
"!  c #35A559",
"~  c #3BA45B",
"^  c #3AA85E",
"/  c #3EA960",
"(  c #4B8847",
")  c #49914E",
"_  c #489A58",
"`  c #579959",
"'  c #6A8858",
"]  c #74845A",
"[  c #7A855C",
"{  c #6D9353",
"}  c #789D59",
"|  c #42A35D",
" . c #49A15E",
".. c #5EA15F",
"X. c #7FA25B",
"o. c #4F9F66",
"O. c #549E62",
"+. c #5B9D65",
"@. c #7A8B64",
"#. c #679967",
"$. c #6C926C",
"%. c #6C9C6B",
"&. c #74956A",
"*. c #7B936A",
"=. c #759C72",
"-. c #779B76",
";. c #44A562",
":. c #4BA464",
">. c #44AA65",
",. c #49AA68",
"<. c #4CAC6B",
"1. c #55A467",
"2. c #54A66A",
"3. c #5CA46C",
"4. c #53AB6D",
"5. c #4FB06F",
"6. c #5EA571",
"7. c #53AE70",
"8. c #5BAB72",
"9. c #54B172",
"0. c #5AB376",
"q. c #5DB47A",
"w. c #66A46B",
"e. c #78A767",
"r. c #63AB74",
"t. c #69A876",
"y. c #76A779",
"u. c #7BA47D",
"i. c #62B57C",
"p. c #69B479",
"a. c #77B47A",
"s. c #8D963C",
"d. c #AA9C39",
"f. c #9DA63E",
"g. c #ABA73D",
"h. c #B7A937",
"j. c #ABB33C",
"k. c #BBB33A",
"l. c #CBB62E",
"z. c #D3B42E",
"x. c #C3AB34",
"c. c #C6B538",
"v. c #E0BE29",
"b. c #B9C03C",
"n. c #DBC82D",
"m. c #879849",
"M. c #919C48",
"N. c #84815E",
"B. c #89805F",
"V. c #B29941",
"C. c #8CA64E",
"Z. c #9AA748",
"A. c #88A658",
"S. c #9CA757",
"D. c #A4A845",
"F. c #B6AA46",
"G. c #AFB64F",
"H. c #B5B447",
"J. c #A7AA56",
"K. c #A8B458",
"L. c #858562",
"P. c #8C8364",
"I. c #838A65",
"U. c #888B69",
"Y. c #938165",
"T. c #968469",
"R. c #9D836A",
"E. c #968A6D",
"W. c #86916E",
"Q. c #848F76",
"!. c #9A8D72",
"~. c #889976",
"^. c #999679",
"/. c #A3836D",
"(. c #A9826F",
"). c #AA8975",
"_. c #B98477",
"`. c #A3947C",
"'. c #AB917C",
"]. c #8CAA67",
"[. c #96AB66",
"{. c #98B369",
"}. c #8DAF71",
"|. c #88A67B",
" X c #88B678",
".X c #95B677",
"XX c #A5AC64",
"oX c #A4B767",
"OX c #C2BA48",
"+X c #B5C343",
"@X c #CFCE41",
"#X c #77A981",
"$X c #7BAC83",
"%X c #66B981",
"&X c #6AB884",
"*X c #6BBA84",
"=X c #78B684",
"-X c #73BD8C",
";X c #7BBC8C",
":X c #77BE90",
">X c #79BF90",
",X c #77C08F",
"<X c #7CC193",
"1X c #9D9E82",
"2X c #A89983",
"3X c #B79788",
"4X c #B59888",
"5X c #8AAA86",
"6X c #9AA385",
"7X c #96A988",
"8X c #86B88A",
"9X c #96B38A",
"0X c #89AE91",
"qX c #88BB92",
"wX c #9AB796",
"eX c #A5A289",
"rX c #A9AC93",
"tX c #B1A690",
"yX c #B8A595",
"uX c #A4B599",
"iX c #ACBEA5",
"pX c #BBB5A4",
"aX c #C9958F",
"sX c #C6A79C",
"dX c #C4B6A8",
"fX c #CBBFB3",
"gX c #8BC088",
"hX c #83C297",
"jX c #8AC69D",
"kX c #93C49F",
"lX c #8EC8A2",
"zX c #9BC7A6",
"xX c #93CAA5",
"cX c #97CCA9",
"vX c #A6C9AB",
"bX c #B5C3AD",
"nX c #ACCCB1",
"mX c #B5CCB4",
"MX c #ABD3B6",
"NX c #B3D5BB",
"BX c #C3C9B7",
"VX c #BADBC4",
"CX c #C7DBCA",
"ZX c #E3D2CE",
"AX c #CEE3D3",
"SX c #E6EFE8",
/* pixels */
"h.F.XX-X-X.Xl.Z.Z.z.8X;X>X;Xc.g.g.G.{.<X*X}.J.l.Z.c.OXjXhX8Xc.D.g.z.XXqX<X-XXXh.g.k.G.hXxXqX.Xz.Z.l.c.qXhX;XJ.x.x.g.F. XqXjX9Xc.",
"F.}.=X%X-X=XXXk.H..X-X<X>X%X.XH.k. X=X-X*Xa. XJ.k.oXgXhX<Xi..XH.h.S.p.;X>X-Xp.S.h.{. X>XcX*Xp..Xh.J.A.;X<X-Xa.S.V.h. X=X>XxXp.}.",
"C.p.i.q.-Xi.e.G.G.a.%X>X-X0.*XZ.Z.p.i.%X*Xq.r.X.j.a.*X-X<X4.p.Z.Z.} 0.*X-X*X7.} f.e.i.*XcXi.0.t.g.X.w.-X<X-X0.} m.f.i.%X-XlX0.t.",
"Y Q ! >.%X<.I ;.;.W >.*X*X^ E ~ R ~ / <.q.>.Q L :.Q Q <.;X>.E R R W <.9.q.i.Q L T W ! 4.cXp.,.W _ Y Q %X*Xq.! Y P U W <.i.jX4.W ",
"#XR Y / %X~ r.#.#.<.I *X*XE ! w.y.R Q ,.i.T T *X&.:.^ W -XI | w.y.8XL <.0.0.K t.-.1.~ ! cX>.Y 2.y.$Xp.q.%X9.P y.0Xu.R ~ <.jXY 4.",
"u -.r.! | 4.k y i U.,.:. .~ |.p 4 &.8.~ ~ 4.%.d t I.&.,._ / ~.p 4 5 8. .| ;.8.l 4 I.%.>.` :.1.U.4 u g :. .;.t.a 9 5 =.:.;.` 2.L.",
"n P.*.:.:.%.z E.!.b #.O.O.1.Y.R.R.U.&.:.;.%.I.n !.Y.L.w.O.+.T.R.R.a W.+.:.:.W.n R.Y.I.3.O.#.&.b /.l z +.:.1.I.n N B P.#.1.O.&.j ",
"9X!.Y.g ] j 7X6X6XeXl ] ] l `.6X7X!.m h @ j E.9X6XeX`.s ' l `.7X9XwXm N.@ # j 5X9X1X!.a ` h m eX5X9X6X[ ] f T.5X0X5X!.z h #.n eX",
"Y.|.~.w < !.'.@ ] eX).q 9 V 5X[ # 7X^.7 > W.|./.O ^.tXaX5 (.7X' @ _.9Xx 7 0 *XE.# ^.2XJ ; /.2XeXo /.'.d 0 r 8XE.z # 5X).M ; tX4X",
"= &.*.F 2 rX> . ( - BXS Z sXo o X ~.|.A * 1X6X$ o y /.ZXZ dXO . X * vXV A S ,Xq - p /.ZX* sXdX3 o > r F S G 5X0 $ - @.sXaX* ZXe ",
"$X0 7 ~.bXr #.$.' + % dXdX4 3 *.-.9 7 |.bXZ 8 8X-.+ X % fX= t Q.-.:.* '.rXyX* 2X0X# 3 8 SXF < O 5Xt.[ aXpX3X% 6XkXwX; e _.AX* o ",
"u B.b r w '.5 I.@.; 3XA A _.t N.j T.R.r Z ).!.5 *.u x sXr 4Xt L.L.> eXM r A |.s j k N aXw 3X4X4 W.5 x V D F ^.s 5 k z _.J r sXq ",
"z ^.^.0 7 `.R.j P.`.).e 0 N 1XY.j ^.^.0 8 `.6Xm j !.`.(.e /.^.j z m 7Xx 0 w wXT.z ^.`.B 9 /.`.^.g b E.x 0 e 7XY.k g 6X(.c 9 2X!.",
"!.uXrX< = E.wXl N nXz 4 4 u NXR.z wX2X= < ^.7X7Xd uXuXy 4 a nXn k 5X7Xs : : wX7Xz uXwXt 3 g E.vXu |.0Xu ; ; wX|.U.j vXb t 3 I.wX",
"vXx u #X$Xa |.NXbXh j u.u.W.t iXNXx s =X#Xd x wXVXU.O [ u.R.u mXVX0X7 ~.$X-.& tXVXT.y @.-Xb l j AXwX!.~.#X-.> rXNXCX5 h *.=Xd B.",
"< &.8.~ P 8.5 X O h i.) U <.&.y ; *.8.T L <.%.7 X # &.*X) 9.I.y ; % *X_ U R 7.5 ; # &.p.  3.t.k - > q _ ) _ w.6 & > &.3.1.( #Xa ",
"L.+.;.^ 4.;.@.+ ' %.^ 8.4.! 1.] h +.;.;.,.;.O.U.@ #.1.>.8.~ #.] # R.:.:.<.<._ I.h #.O.>.y.:.:.&.# P.W.4.8.<.:.P.m j +.:.<.t.:.&.",
"y._ ~ / i.~ r.' ' 4.I %X%XW ;.#.%.| ~ >.q.R _ t.' 2.>.W *XI :.#.%.$XY <.9.q.U t.&.1.;.! xX,.~ 2.#.u.r.q.%X9.T y.u.=.;.^ <.hXQ 4.",
"| Q Q >.%X>.Q 2.4.W ~ *X*X~ W :.:.~ ^ ,.i./ Y Y 2.Q W >.-X| W :.2.Q ;.9.q.i.Y Y :.Q Q <.cX8.;.W 2.~ Q %X*Xq.Q T T _ W >.q.jX:.Q ",
"S.p.q.q.-X%X}.k.H.=X*X<X:Xq.*XD.D.p.i.%X*Xq.r.].k. X;X<X<X9.=XD.g.}.9.*X-X-X<.A.g.a.*X>XcX%Xi.a.h.[.y.-X<X-X9.A.Z.g.p.*X-XxXi.a.",
"k.S.}.%X-X8XH.g.g.H.;X<X>X*XJ.g.h.[. X*X*X X{.k.j.H.oXhXhX*XJ.g.h.c. X;X-X-X}.H.h.G.{.<XxX;X XG.h.k.G.qX<X-X}.H.k.h.K.8X>XlX8XG.",
"x.F.[.*X-X.Xz.D.D.z.8X;X;X=Xc.g.g.G.{.-X%X.XK.l.Z.c.OXhXhX=Xc.g.g.v.oX8X;X*XXXc.g.c.G.qXlXqX.Xc.D.l.c.qX<X-XXXc.x.g.OX XqXjX9Xc.",
"g.x.G.%X*X{.l.A.A.n. X=X*X=Xn.Z.C.H.K.-Xq.S.F.k.} l.@XgX;X Xv.C.C.z.J.8X-Xi.V.d.m.c.OX;XhX X[.v.} h.x.8X-X-XF.d.d.m.z.}.=XhX{.z.",
"D.a.*X%X,X*X].b.+Xa.*X<X<Xi.;XG.j.a.*X-X*X*Xa.S.c. X=X:X<X0.=XH.k.A.i.-X;X-Xi.A.h.}.=X-XcX%Xi.a.l.Z.X.>X<X-Xi.C.d.h.a.*X-XxXi.y.",
"_ ~ ^ >.%X9.| ` ` ^ 9.-X-X>.! _ _ >.>.<.i.>.^ _ ` | ,.i.<X<.! ) ) :.7.0.i.%XQ T ) | >.%XcX%X<.~ ) _ :.*X-X%X^ _ ) ) ! 9.*XjXq.>.",
"i.T I / %X~ <.w.w.^ I %X%XI W 8.t.T Y ,.i.T Y 7.%.;.Q W -XL ! r.p.p.L <.q.0.K 2.t.| Q ! cX:.Y ;.p.r.4.q.%X9.P 8.p.t.Y ~ <.jXL ;.",
"a =.8.~ <.<.I.5 u y.~ 4.4.Q #Xs 5 %.4.^ <.4.w.v 9 *.3.! 4.Q u.q 9 h <.,.>.<.8.L.q *.3.^ t.>.| -.7 j @.<.4.>.8.j d q t.;.;.r.~ %.",
"z U.&.>.,.#.j B B b 2.2.:.:.T.N l I.%.>.,.%.*.z B b I.2.2.:.Y.N l g &.1.,.,.&.B.m P.@.4.2.2.#.v N z [ 2.:.,.*.j z l I.3.2.2.+.N.",
"~.x a 7.>.U.a iXpX% ~.:.:.y.& 1X9Xx z 7.>.L.z h nXr 0 5X:.u.$ 7XqXg N #.<.2.l [ qXx x $X^ y.E.< lXP.a +.:.3.x @.y.;X0 W.t.;.^.5 ",
"kXu.I.6 O y VXy.y.VX> o o % cXa.$X~.B.5 y O *.MX%.nXdX* + > cX6.t.AXj t t t ) jXa.zXtX% T 3 x MX1.MXbXO O 4 &.kXxX=XqXx ; ) q mX",
"5 5X7Xc 1 rXd X O L.iXZ 8 eXy.y 3 7X7Xe & rXuXq X L.^.bXZ rX*.y - 7 vXB w r vXc ; U.6XpX* aXrXP.- 9 B M 8 M zXx > = 5X4X_.* mX/.",
"j m N c V ).g @ @ i ).H H B g h h m B N M C (.z @.# z _.J (.f L.h y ).B V H ).B P.j n _.J _.(.g P.g k C V V (.m b T.z C C J _.g ",
"u.9 7 B yXw [ -.*.t 1 yXyX6 = W.u.5 7 R.aXw 7 ~.$Xy ; & yX= ; ~.$X` % B 2XaX& ^.0Xp 4 8 CXM 9 t 0X&.# 3XyX_.> ~.8XqX= 0 V BX> X ",
"T.s e S F M 5 7X6X> F H H D > ^.6Xx c A G c l a 9Xq 8 G C V = 6X7Xt N M F G k g ~.d 0 G _._.B ; wXk u V H G s j L.~.5 F H C _.5 ",
"a bXpX= $ eX~.7 w kX~.7 > N.VXc 9 iXuX= % tXiXT.1 7XqX' 7 W.NXr > #.nXx < < AX`.< rXwX@ & T.5XzX& N.u.x > ; NXT.u < MXE.u % $XqX",
"rX'.).Y.m m 5X2X2X$Xz m m j 5X2XtX`./.P.m B ).wX4X|.=.O m n 7X4XyXqXB Y.Y.n J yX4X1X~.i Y.N m 5XaXwX7Xm b j ).tXyXsX^.b j Y.l 5X",
"NXl u 5X8Xd qXcXxX#.u ~.5XY.' vXNXl u $X0Xq x vXMX=.' y |.x [ mXCXnX> ~.$X~.& dXCX~.# g -Xx x W.AXnXeXW.u.~.< dXAXAXu k U.=X7 ~.",
"5 [ +.>.U w.6 [ [ 4 *X_ _ q.i # i I.%.| Y 1.@.< [ p j >X_ p.y # i % |.` _ ;.+.4 p i # =X( t.|.4 # < q O._ 2.&.5 6 u # t.r.( 0X5 ",
"*.+.:./ q.;.t.f f r.Q i.q.W 8.[ h O.;.>.q.:.O.=.p w.4.W %XI 3.h h =.~ ,.9.9.o.=.h %.4.! hX>.~ 6.g &.w.9.q.<.:.&.W.L.2./ ,.:XQ 6.",
"2.~ Q / i.^ | w.r.! Q %X%XQ Q 3.3.~ ~ >.q.~ Y | t.| Q Q -XY ! 3.r.>.T 4.0.0.Y R 3.~ Q ^ xX4.T ! t.:.~ i.%X9.Y | :.3.Q ^ 7.jXR ~ ",
"} :.>.7.*Xq.t.M.M.i.i.,X-X9.<.} m.8.5.9.i.5.<.w.M.t.%X<X<X<.4.{ m.8X9.i.*X-X! ..m.w.i.<XcX%X0.0.s.e.p.-X<X-X>.w.} { <.i.-XlX%Xp.",
"x.].a.i.-X;XF.h.h.J.-X<X<X%X].h.x.}.a.%X*X-X Xk.x.J.[.>XhX%X].h.x.OX=X-X-X-X-XG.l.J.}.<XcX<X=XS.x.H.K.<X<X-X XH.c.l.}.=X<XlX8XK."
};
