/* XPM */
static char * carpet4_xpm[] = {
"64 64 32 1",
" 	c #6F1B0F",
".	c #731B08",
"+	c #692912",
"@	c #742A0E",
"#	c #832810",
"$	c #992B19",
"%	c #94303B",
"&	c #97371F",
"*	c #983911",
"=	c #99392F",
"-	c #8C431D",
";	c #9C400D",
">	c #8E4432",
",	c #834A2C",
"'	c #A83E36",
")	c #974716",
"!	c #814D3A",
"~	c #A94A29",
"{	c #B24A0F",
"]	c #AC4B3A",
"^	c #A2513F",
"/	c #9C5537",
"(	c #A55338",
"_	c #A65429",
":	c #9F5819",
"<	c #A9551E",
"[	c #9D5829",
"}	c #975844",
"|	c #965A37",
"1	c #8A5F4C",
"2	c #A96745",
"3	c #B96B3A",
"*;;)*;;;;**;;*);;;;*<;**)**<;*;*;<;;;**)*;;*;;;*)**;;****);;;**;",
"********************~********&****&**$***************&**********",
"$$$$$$$$$$$$$$$$$$$$&$$$$$$$$$$$$$$$$$$$$$$$$$$$$$$$$$$$$$$$$$$$",
"$$$$&$$$$&$$$&$$$$$$=$$$$$$$$$$$$$&$$$$$$&$$$$&$$$$$$$$$$$$$$$$$",
"~&$&(~$]((&$&((&&((&=&((&$&((&&((~&&~($$](($&((($$&~&$&((&$](($$",
"/]'_2(&(22~]]22]]22_=(/2~']2/&~22/]_/2~](22~~222]~___~(22~~(22]~",
"|((_|/(/||/((||((||/&/||(((||(2|||([||((/||22|||/(/|__/||2(/||2/",
"[__[-[_-[[/[[-[__[[[_[-[[__[-[[--[_[[-_[_[[22[-[[__[__[--[_[-[/[",
")))<)<)):<)<<)<<)<))<)))<))<)<_))<)<<)_<)<<)<<))<))))_<))<_))<)<",
"))))))))[[)))-))))))[)))[-)[)))))[)))))))[))))))[)))))[))[))))-)",
"[[-[[[[[|[-[[[-[[[[[|[[[[[[[[[--[|-[[|[[[[[-[[[-[[|[[[[--[[[[[|[",
"[[[[||[||[[|[[)[[[[[}|[[|[[-[[-[[||[[|[[|[[[[[|[[||[[|[[-[[[[[|[",
"(___((_(^(_((()_____^(__^2_~((___^(__^(_(____((__((__((___(___((",
"]~~~]]]]]]~]]^~~]]~~']](^^]~]^~~(^]]]^^(]]]~~]]](]]]~]]~~]](~~]]",
"%&~]%''%%%]'%%~'''''%%%'%%%&=%]'=%'''%%'=%%&'%%''%%'''%&&'%'''%%",
"%===%%%%%%=%%%&=====%%%=%%%&=%===%%=%%%==%%&=%%==%%==%%=&=%===%%",
"(&&&]=&]](&==(&&&&&~^]]&=(]&&(&&&^=&&=]&=]]&&]]&~]^&&=]&&&]&&&^=",
"<<)<__<__<<__<)_<___(_<<_3<)_3)<_3_<<_3_~<<~<<<~<__<__<_)<___<3<",
"3:_<33<333:333__<<__333__33<_3__<3_<323<_33_<33_<33<_33[[<3__<33",
"3[:<2[[223[332:_33[[322[22[<[3:[[323322<[33_<33[322[[33[[<2[_[23",
"2|[3}2|}}3|22}[:[3[|322|21|<|2[||3}[[}|_|22|_22[_}}/|22|[3}[[|}(",
"!!|_!,,!!/!,,!,-,|,!|,,|,!!_!|,!![!,|!!-!,,,,,||,11,,|,,,[!||,!/",
"+!,#!+,++@!++,+++++!@++,+!!#!,+++&+++!+@!++!++,!+!!++,+!!@!+++++",
"................... ...... ................ .....  .............",
"................................................................",
"@++#++# ++#+++#@+#@+@@@+@@@+@++## +@#++@+++#++@#++@++@@++#+++#++",
"@++#++@+++@+++@++@@+@@@+@@++@++@@++@@++@+++@++@#++@++@@++@+++@++",
"@@@#@@#@+@#@@@#@@##@@@@@@@@@#@@@#@@##@@#@@@#@@@#@@@@@##@@#@@@#@+",
"#@@#####@####>#####>#######@#>####@#############@######@@#######",
"==^^&==~~&==&(====^^&&==_&&==(===&(>=&'=(&&==((==&&=====^(&==&~&",
"]^^^]]=((]=]]^>==^^^]]]>(]==^^^==(^^^]]^/]===^^^=](^]]]^^^]==>((",
"(^>>(^^>}^](^>^^^^>>(]^}>^^=^>^^^/>>^]~^>(^^^>>^^(^>^^]^>>(^^^>^",
"(^>>2(}!!2(^}!/^^}>>(((}!}^^}!/(^2!>^((^}^^^}!!}(2}>/((^>!2^^}!}",
"2>>!2(}11}(^}!>^^}!!(((}1}^^>!/(^2!!>(3/!}^^^!!}(2}!}((>!!2^^}1}",
"/>>,((>11/((>!>^2>!!((^>1}^^>!^(22!!>(2/!}^^(!!^2^/>>((>!!((^>1/",
"=^^/]=>/(]>=]/^>>>^}]==^(>=,^//>>(/>^]=^/==>(/(]>]]>^==^/^===>/(",
"&=(]&&&&&&=&&~=&&&=>$===~&&>&(&==&~==&==~&&==&&&&&&==&==(&$&&&&&",
"###$$&#$$#$##&#$####$###$##&#&#$$#&$$$##$##$#$$#&$########$&$###",
"@@@#@@@@++#@++@@@@@+@@@+@@@@@@@@@++@@++@@+@#++@@+@@++@@@@@@+@#++",
"+++@++@+++@+++@++@@+++++++++@++@@++++++@+++@+++@+++++++++++++@++",
". @.  .  .  . .@@.. .. @.  @..@... ..  . .. @ ..    @.  @. @@. .",
"#@@#.#...#.##..####@#..@#..#..@..#@##..#.##@##..#..@@..@@#.##..#",
"*@#;@*#@#;@**@*****@{*##*@@{##-@#;@**@#*@**@;**#;@@-#*#@@;@**##*",
";-){-;)-;{-;;-;{;{;@{;)){@-{);)@-{-;;-*{-{;@{{;*{--)*;;@-{-;{-*{",
"*+-{@)-+){+**+););)+{)--*+@{-)-+@{+**+-;@;*+;))-;++-@))+@{@**@-;",
":,-{|[-|[<,_:,-)__),3[[-[|[{,[,,-3,__|[),[[,_[|-_||--[[,-<|_),|:",
"3[[_33_333[[33)_:[__333_333)[3/[33[:<33_[33[_33[333__33[-333_:33",
"3_)_3__333__33)_____233_233)_3~__3___33__33)_33__33__33))_3___33",
"]~*~]~~]^]~~]]~~~~~~^]~~]~~~~~~~~]~~~]~~~]~~~]]~~]^~~]]~;~]~~~]]",
"'~~~''~'%'~'''~&&&'~%''~'''~''&~'%'~'%'~'''&~'''~'%''''~~~'''~%'",
"%>/>%>>%%%>>%%/>>>>>%%>>%%>(>%^>>%%>>%%>>%>^>%%>>%%>>%%//>%>>>%%",
">///>>/>>>/>>>//>>//>>>/>>//>>//>>>/>>>/>>>//>>>/>>/>>>//>>>>/>>",
"3___~_<~~3_~~3~_~__<]~~<]3<_~3~<<]_<<]3__<<~<~~_<~~__~<___~~_<~~",
"3[_[(([(23[(([)[__[[^(_[(23)(3-[[^/[[(2[(3[)[(/_[(2[[([_)[(__[((",
"},,,1}|}1},}}},,||,|11||}1|,}},,|1|||}1,}}|,,}1||}1|,1},,|1,,|11",
"1!,!111111!111,!1!!!111!111,11!,111!!11!111,!11!!111!11,,!1!!111",
"|[[[||||||[|||[[|[[||||[|||[||[[[||[|||||||[[||[[||[[||[[||[[[||",
"::::<::::::::::::::):::::::::::::::::::::::[:::::[_:::::::::::::",
"-~~_-_)---___--~_---)---__~-~_/---)__-__)--__---_______--[_---__",
"[]](/(&(|/_~(//](///&(//(~]|(((///~(/-(((/((((//((_((~[//_~(//~_",
"[&&(/(&(|/~~(//&&//[=(//(&&/(](///=((>(&//(~~(//]((((&[//(](//]~",
"&==&&&=&&&&&&&&==&&&>&&=&==&&&'&&&=&&=&=&&&&'=&&=&&&&=&=='=&&&=&",
"$&&$&&&$$&&&&&$&&&&$-$$&$##&$&$$$$=&&=$&$&&$&&&$=$$&&=$$$$&$$&=&",
"$&&$$&&&$&$$$$&&&&$$-&$$&##~$&$$$*$&&&$&$&&$&&&$&$$$&&$$$&$$$&&&"};
