/* XPM */
static char *_9291877b9524d27eac6b203f048d27fLKA5JmYcRPxnTjts[] = {
/* columns rows colors chars-per-pixel */
"64 42 255 2 ",
"   c #3A2418",
".  c #301B20",
"X  c #352B2D",
"o  c #5E1C1C",
"O  c #6B1D1A",
"+  c #542816",
"@  c #6B2A18",
"#  c #75251C",
"$  c #72331B",
"%  c #561C37",
"&  c #6A1B30",
"*  c #57282A",
"=  c #49332A",
"-  c #58372A",
";  c #592A39",
":  c #443032",
">  c #5A3836",
",  c #682725",
"<  c #752929",
"1  c #663629",
"2  c #783629",
"3  c #672A36",
"4  c #762939",
"5  c #683838",
"6  c #773937",
"7  c #5B4539",
"8  c #504A3D",
"9  c #694439",
"0  c #704C35",
"q  c #74453B",
"w  c #3C2D4D",
"e  c #5B1C4D",
"r  c #691D52",
"t  c #4A2A47",
"y  c #562949",
"u  c #4A374F",
"i  c #583846",
"p  c #582956",
"a  c #5B3756",
"s  c #682A47",
"d  c #772947",
"f  c #673846",
"g  c #743947",
"h  c #662858",
"j  c #762C57",
"k  c #69355A",
"l  c #763A57",
"z  c #5C1C76",
"x  c #681D68",
"c  c #5A2963",
"v  c #53316D",
"b  c #5A2A79",
"n  c #632766",
"m  c #73266C",
"M  c #663967",
"N  c #743C67",
"B  c #652879",
"V  c #683979",
"C  c #753A79",
"Z  c #494649",
"A  c #574948",
"S  c #584759",
"D  c #575458",
"F  c #694746",
"G  c #774648",
"H  c #6C5746",
"J  c #775647",
"K  c #6A4659",
"L  c #784858",
"P  c #665654",
"I  c #795859",
"U  c #716156",
"Y  c #574968",
"T  c #5C5765",
"R  c #5B4678",
"E  c #5A5172",
"W  c #684769",
"Q  c #7A4A67",
"!  c #67586A",
"~  c #795468",
"^  c #684977",
"/  c #764878",
"(  c #685876",
")  c #785777",
"_  c #676569",
"`  c #726C68",
"'  c #6B6472",
"]  c #6D6776",
"[  c #76697A",
"{  c #777378",
"}  c #941B19",
"|  c #882818",
" . c #99271A",
".. c #8E3214",
"X. c #873628",
"o. c #8D3336",
"O. c #8A4618",
"+. c #934916",
"@. c #8C5718",
"#. c #955716",
"$. c #976713",
"%. c #9B7817",
"&. c #8C4B30",
"*. c #A06C23",
"=. c #8C384D",
"-. c #AA3E5C",
";. c #88376B",
":. c #854648",
">. c #854558",
",. c #934D51",
"<. c #845858",
"1. c #B05655",
"2. c #8C645A",
"3. c #936A55",
"4. c #AB6E55",
"5. c #854B69",
"6. c #934E6F",
"7. c #875868",
"8. c #885879",
"9. c #AA4D72",
"0. c #8F6F6E",
"q. c #996869",
"w. c #886778",
"e. c #996873",
"r. c #9B7578",
"t. c #AB7173",
"y. c #988612",
"u. c #A58811",
"i. c #A68A71",
"p. c #541990",
"a. c #5A1C99",
"s. c #631A8C",
"d. c #5A2A87",
"f. c #552C90",
"g. c #652788",
"h. c #683988",
"j. c #75348C",
"k. c #672C9A",
"l. c #683798",
"z. c #4F18AB",
"x. c #581BBB",
"c. c #6C1AB3",
"v. c #5827A7",
"b. c #582CA9",
"n. c #5925B5",
"m. c #5D2ABB",
"M. c #642BA9",
"N. c #712DAF",
"B. c #6636A9",
"V. c #7739A8",
"C. c #6838B5",
"Z. c #5F438C",
"A. c #6A4888",
"S. c #764888",
"D. c #695787",
"F. c #775789",
"G. c #6B4998",
"H. c #744799",
"J. c #6C5695",
"K. c #765897",
"L. c #756687",
"P. c #75688D",
"I. c #7E7884",
"U. c #786698",
"Y. c #6A48A5",
"T. c #7348A8",
"R. c #6D53A8",
"E. c #7859A7",
"W. c #6B46B5",
"Q. c #794AB5",
"!. c #7955B8",
"~. c #7A65A4",
"^. c #7D63B7",
"/. c #531CC3",
"(. c #5519CB",
"). c #4C0FD0",
"_. c #4E14D6",
"`. c #5419D7",
"'. c #5925C6",
"]. c #5923D3",
"[. c #6937C8",
"{. c #6B31CC",
"}. c #6838D4",
"|. c #4C0CE5",
" X c #4C0BED",
".X c #5214E8",
"XX c #4804F7",
"oX c #5E23E3",
"OX c #6B37E9",
"+X c #6D45C8",
"@X c #7948C6",
"#X c #7A56C5",
"$X c #764BD6",
"%X c #7F61C2",
"&X c #7749EB",
"*X c #85398D",
"=X c #8438A9",
"-X c #855789",
";X c #8F4D92",
":X c #865A97",
">X c #935598",
",X c #A65E9E",
"<X c #886885",
"1X c #86788A",
"2X c #876997",
"3X c #867896",
"4X c #977390",
"5X c #A7748E",
"6X c #875BA5",
"7X c #8D57B4",
"8X c #8765A8",
"9X c #936DAE",
"0X c #8966B9",
"qX c #9977B8",
"wX c #AC72AE",
"eX c #8357CA",
"rX c #8456D5",
"tX c #8966C5",
"yX c #9766C8",
"uX c #9877C9",
"iX c #8B6AD3",
"pX c #946DD9",
"aX c #9877D9",
"sX c #A277D3",
"dX c #8359E5",
"fX c #8C65EA",
"gX c #916CE4",
"hX c #9A77E6",
"jX c #A27EE8",
"kX c #88838A",
"lX c #938A94",
"zX c #B18D8E",
"xX c #AC8899",
"cX c #9789AA",
"vX c #B08BAF",
"bX c #A886B7",
"nX c #BCB7BE",
"mX c #C59392",
"MX c #CAA78C",
"NX c #CCA2A6",
"BX c #9A82CD",
"VX c #A785C9",
"CX c #A887D8",
"ZX c #AC96D5",
"AX c #B396D4",
"SX c #A688E6",
"DX c #AE92EB",
"FX c #B096EF",
"GX c #BCA5E8",
"HX c #BCA5F2",
"JX c #C2ABD7",
"KX c #C6B1EB",
"LX c #DBD4E7",
"PX c #D9CEF1",
"IX c #ECE6F8",
/* pixels */
"(.XXXX`.'. X/.l.l.|.XX'.'. XXXc.c.XXXX`.m. X Xm.A.`. XXX'. XXXc.c. XXX`.].'.XX'.l.`. X XC..XXXXXk.|.XX`.'.`.XXn.l.l. X|.`.C.XXXX",
"{.`./.v <XM.x.l.k._.f.2X2Xd.XXN.V.`./.V -Xn./.m.S.(.).b 9Xp. XN.=XoX`.G.F.F._.m.l.(./.h.nXY.n. X*X].oXE.2XF._.M.l.l._.f.F.vXn..X",
"C.m.v.> q.V n.l.l.'.p r.r.y `.V.V.n.f.F 2.h.a.n.l.n.v.f i.p ].=X=X}.v.~ 2.2.z.b.l.n.v.F MX/ d.].;X[.{.w.0.2.v.v.M.k.n.M <.MXd.'.",
"#X( F | @.2 l.Y.H.( # #.#.| [ W.+XW q ..O.1 a b.V.( L  .$.O D.#X$XW.> O.+.+.: v.m.R F  .u.$ 3 J.$X!.G.@.#.+.> v.(./.S 2 +.u., A.",
"!.L.I ..$.&.F.H.H.L.X.$.$.| I.^.!.) :.O.$.0 K Y.H.) I  .%.< P.0XtXE.G @.#.#.P G.B.( I  .u.O.6 P.eXE.F.@.$.#.P G.C.C.' &.+.u.2 F.",
">.K.A.> 3.^ E.2X2XE.a q.q.y 8X,.,.F.S.F 2./ A.J.<XE.A.i r.a 8X,.=.8.J.~ <.2.G.D.L.K.J.f MX~ W :Xo.6.-X0.q.<.G.J.F.L.E.W I zXW F.",
"G / S.W w.F.P.4X4XU.R <X<XW F.G q ) F.W w.F.J.L.4XU.J.R 4X^ -X6 6 ~ F.F.) 8.G.D.w.U.J.^ xXF.^ ) 2 L ~ <Xw.) J.D.[ <XE.D.F.5XA.( ",
"= 9 L F.Y.D.] w.w._ J.Y.Y.) 1 = X 9 L K.R.D.( ] <X! ! J.Y.) 9 = : = G S.G.Y.E ] w.' ( J.C.S.L 1 X = > A.Y.R.( [ { [ ! J.R.C.L - ",
"* - > F :XD ^ W W Y D / / 7 - * * - - f 2X! D W ~ E Y Z C - = * * y = f M L.D ! Q E Y S g.f - > * ; ; k N ( D ! ~ K Y T W m - > ",
"s : = + 4.A b 5.~ d.Z &.&.= : 3 4 :   + i.` D p <.A.d.X X.  X O & g.. + 2 i.{ y g ^ R X  .+ X u O c c @ X.2.T y % 3 R A 9 } X a ",
"zXC n 1 A d >.t.t.r o.F A 2 e t.t.l k 9 : l 5.e.t.d &  .P 0 h 5XmX<.k F 9 - C 4XzXl 4 | { J G k mXe.7.P H 5 j r.zXNXh 4 6 ` &.g ",
"M I.1XP $ > d j d 3 8 6 q D lXQ k ' ` U ..> i d j 6 5 8 G D 1XM h v T ! J X.Z f j g 5 7 :.A D L.k M Y P G 2 A s j h > > 9 :.u ( ",
"^ _ ] P.8.F 5 ; ; 1 i w.4XD.] ! W ( ] 2X5.5 > 5 i 1 5 u 4XD.] W W ( ' 3X2X5.- 5 f 5 5 a xXL.( ' W ( ( 1X4XQ - f f f - f ~ xXY ( ",
"] D E uXqXK - : X - p bXZXR.D ' [ ( D.aX0Xg 1 7 : = - p JX^.D ' [ I.L.BXBX8X# 5 > - > M PXbXU._ ] ] { ZXZX8X, 9 9 > 1 k 2XPXU.] ",
"kX0XiXDXF.l.:     t l.B.0XPXY.5XzXBXCXDX8.l.d.X   w v k.eXPXR.xXzX1XGXSXuXF.M.t   t v k.'.GXKXK.mX1XlXgX#XA.a.t = + b h.B.[.LXU.",
"iXGXDX|.&./ VX4.4.hXg L C  XIXqX^.DXhX`.@./ H.bX4.qX0X2 A.XXIX0X^.GXfX}.k.O.B.qXt.qX8X2 ) `.OXPXY.CXSX[.h.&.Q.qXxXt.rXL G h..XKX",
"CX9X!.x.M.0XyX,.>.gX9XC.n.v.uXwXwX0XQ.x.k.0XuXwX,.tXpX9Xm.M.uXbXbXhX7Xm.n.l.CXwX1.yXpX8X'.M.Q.iXvXsXpXm.m.H.aXwX,X9.hX0XT.x.V.iX",
"VXS.d.v.oXhX7X=.=.eXSXOX].V b.wXwXH.h.v.oXjXCX>Xo.7XgXSX]./ B.wXvXrX-Xb.'.OXKX,X=.7XpXhX XH.S.C.NXyXeXm.].&XDX,X9.-.aXgXdX|.8.C.",
"a.M W h.FXyX; < < % aXhXuXL h.B b / ~ A.HXwX;X; , % n fXtX2.l.n z x.q.S.6XFXwXK 3 s C hXdXw.7.k.c a.k.H.7XFX>XK 5 q ;.yXhXiX3.k.",
"4XM.[.HX9Xl 5 e h G s 9XsXhXp.0XqXM.[.HX7Xl 3 5 e f f d aXfXs.uXbXL /.hXCX>X* 3 % 5 f j SXdX+XB ZX8.C hXCX;X> 3 3 % 9 l -XSX+XB ",
"S.yXaXyXQ g h a a s g Q -XaXtX2X-XyXaXyXl 5 f h a s s g >XhX0X2X-XB SXyX>Xl > h c s s g -XuXpX7X2Xj.H.9X:Xl 5 h n c 3 g L -XaXV.",
"g.AXAXQ.6 5 n S a r F g N iXSX:Xh.ZXAXV.1 3 s n S h h F 5.CXCX-XC a.KX6XC 5 * c M h s F g qXCXyX/ k.Q.>XN 5 3 c b v s g g l DX@X",
"a.JXJXB G 3 b 7 9 s.5 5 l 7XKXj.p.KXJXB G 3 ; b 0 B B F >.VXHXS.z ).IX-Xh G o p A n n F < vXAXhXx x.rX8.s G & p u u r f g 3 GXdX",
"2XM.Q.KX;XN 3 x x 5 s 6XuXZXz E.6XM.Q.KX;Xl f 3 x ; ; e sXaXB 7X8X/ n.CXAX*XL 4 j f f h CXiX#XB uX-XS.CXVXC G 4 4 d g k S.SX@XB ",
"B g.f.B.PX;X> 2 < * 7XCXCXA.a.V C h.l.Y.PX;Xm > < * p [.aXF.a./ / s.-XT.tXKXj f 5 ; k eXhX:XS.a.Q g.g.Q.iXGXr G G G s 7XpXhX8.a.",
"yX8.Q S. XDXj.& 4 =XHXOX'.<.H.7X7X8.7.h. XFXAXm o *XyXKXm.2.H.,X7X}.3.S.C.OXIX8.& >XsXFX`.8.7.T.wXeXQ.l.C.&XKX5.s < CXjXfX`.3.T.",
"jXpXrX|.S.T.JX-X;XKXH.l.M.`.SXuXuXiX$X_.) W.#XJXe.AXCXA.m.(.SXCXaXhX$X].'./ oXCX5XVXuXA.n.'.}.hXuXhXgX].'./ $XVXvX,XhXE.l.x.{.gX",
"uXpXdXOX~ l.bX6.6.VXV h.H.&XgXVXbXpXdXOX<.k.C.xX,.qX9Xn B.&XhXVXVXBXfX$XC.L (.9Xq.9X7XM b.$XdXaXbXuXpX}.C.L [.4X5Xe.eX/ V b.dXaX",
"1XiXgXSX:.V j X.X.g.k N -XKX$XcXxXaXhXCX&.g.g.d +.V d.3 :XKX$XcXxX3XDXBX8X&.n.d ..B g.3 h.ZXGX%XzX3X9XtXK.6 b.o.| ..v.k l A.KX0X",
"D ] U.fXhX;.A . . = g.CXDX}.lX{ _ P.0XfXdX;.o.D X   t M.GX+XI.1X` X ~.aXhXrX} I Z * s N.IXiXR._ { Z w ZXFXrX| I _ D < j.0XPXW.! ",
"^ { { ! :.F 2 3 3 @ A 7.7.T kXW M ] ] ] o.F F 6 s < 1 A w.T kXM c ] _ L.) :.A g s 2 2 F 4X! T I.c ( ] L.[ G 9 g j h 1 F I 4XZ ] ",
") ) ( P q 5 g >.>.3 > G J P ( ~ 5.! ! I 2 5 f G >.6 3 - I P ) ~ ~ ~ D ~ I 6 A L 5.g 5 1 0.P D ( 5.) ) ~ I 6 f L >.5.; 5 q 7.A ! ",
"e.^ W 0 9 3 l q.q.h , 9 0 J c e.e.W K J - ; f 5.t.l 3 # J H c e.e.L S J 0 1 f Q e.l 3 @ <.H F M t.7.Q J 0 1 s Q 7.r.p , 1 <.P k ",
"7.k f @ J K N e.e.c P F 9 @ c e.e.s 3 1 U ! ^ Q t.N k J 9 @ c 5Xt.s 3 1 9 H J.) r./ M H q # , p zXl s 1 9 H v ~ w.r.b P 0 q # s ",
"d F 7 1 R ' Y c p D _ ^ V 7 + p h 9 7 > R ' ' R n S D _ V A + c n } A i a E { D.V T T _ j.! F @ B < X.Q N R _ D.Z.f._ _ ( j.U X.",
"f 6 G ) Y.P.T [ w.{ P.Y.H.) @ ; i q G A.J.D.! Y ) { I.U.H.) $ t u G J S.G.J.T Z Y ' [ U.C.) I 2 u F G S.H.R.] u w Y _ P.E.C.7.6 ",
"A 6 =.0X#X~._ lXlXkXE.!.!.8X$ = : :.>.%X0XD.E D 0.lXcX^.!.4Xq = : _ ,.6X#X^.Y X D { 3X0X+X:X8.q X P I E.#X#XL.X X A ] ~.%X+X8.F ",
"X.K.K.S lX~.U.zXxX~.A.cXlXR 8X&.X.:X~.! kXE.R.L.zX2XJ.^ vXA.2Xo.| :.0XU.1XkX+XD.r.~.E.) nX8XK.-X| :.5.cXlX1X!.P.[ r.^.F.3XnXK.) ",
"E.( K # +.5 G.G.G.J., +.+.O P.K.6X^ F | +.5 a Y.G.A.W O #.o P.6X6XE.i 2 O...Z G.Y.A.W # *.$ ; K.6XE.A.O.+...S G.Y.Y.( 1 $ *.* A.",
"!.cXi.#.%.3.K.H.H.3X&.%.%.&.cX^.!.4Xq.#.u.3.<XY.H.2Xw. .%.&.cXtX!.J.r.*.$.%.lXT.B.2X0...y.&.,.3X#XE.U.*.$.$.r.Y.M.M.lX&.#.y.,.<X",
"}.C.d.o o.p _.x.n.`.X :.o.% ].[.[.b.b , o.k f.|.M.(.z.. ,.: ].[.[.OXf.g 2 X.R /.x./.a.  1.f v ].[.}.[.g o.2 f.(._.(.n.y 3 1.w '.",
"N.`.(.h.~ v.M.A.l.'.z./ / a. Xj.*X_./.V Q n.x.l./ m./.z./ z. X;.6.`.).l./ / _.l./ n./.a.0.v./. X6.'..Xh./ V _.h./ / (.v.h.w.). X"
};
