/* XPM */
static char *_f25922755c04efafd99913345704702OtxuVsnhvOBG3pnS[] = {
/* columns rows colors chars-per-pixel */
"64 42 249 2 ",
"   c #5F1C0A",
".  c #671507",
"X  c #691406",
"o  c #681708",
"O  c #651D0B",
"+  c #691C0A",
"@  c #761203",
"#  c #771C08",
"$  c #49271B",
"%  c #5A2610",
"&  c #562A17",
"*  c #5D2A12",
"=  c #66250E",
"-  c #6A210C",
";  c #74230C",
":  c #7B240C",
">  c #762A0F",
",  c #7C2B0F",
"<  c #632A11",
"1  c #672812",
"2  c #6A2B11",
"3  c #732C11",
"4  c #7A2D10",
"5  c #6C3115",
"6  c #63321A",
"7  c #6A341A",
"8  c #753414",
"9  c #7C3514",
"0  c #78371A",
"q  c #4F1824",
"w  c #5C242A",
"e  c #5B3B2C",
"r  c #642A2C",
"t  c #673A26",
"y  c #733D23",
"u  c #7B3F22",
"i  c #6C3332",
"p  c #753933",
"a  c #6C412C",
"s  c #78452A",
"d  c #6A4734",
"f  c #784837",
"g  c #784C34",
"h  c #7C4339",
"j  c #7B523C",
"k  c #7C583F",
"l  c #734D47",
"z  c #7C5747",
"x  c #7D5E54",
"c  c #7F6154",
"v  c #891705",
"b  c #821E08",
"n  c #8C1D0B",
"m  c #82240A",
"M  c #8D230C",
"N  c #832C0C",
"B  c #8C2909",
"V  c #91230D",
"C  c #942A0F",
"Z  c #94360E",
"A  c #973A0F",
"S  c #8B2715",
"D  c #8C2B14",
"F  c #932412",
"G  c #942B15",
"H  c #992B15",
"J  c #942319",
"K  c #952B1A",
"L  c #9A2E1B",
"P  c #843412",
"I  c #843B17",
"U  c #8C3C16",
"Y  c #823A19",
"T  c #8D3819",
"R  c #953316",
"E  c #953C12",
"W  c #993D12",
"Q  c #94331A",
"!  c #973619",
"~  c #9B331B",
"^  c #9B3B1C",
"/  c #A0361D",
"(  c #8D2D24",
")  c #8C2D2A",
"_  c #952E22",
"`  c #992E23",
"'  c #912E2D",
"]  c #863628",
"[  c #933123",
"{  c #9C3223",
"}  c #983C24",
"|  c #93342C",
" . c #9B332A",
".. c #943A2C",
"X. c #9C3C2C",
"o. c #8D2E33",
"O. c #952C38",
"+. c #8A3434",
"@. c #983534",
"#. c #A32A29",
"$. c #A23324",
"%. c #A33D23",
"&. c #A53A28",
"*. c #A43B2C",
"=. c #AA3C2B",
"-. c #A33C34",
";. c #AA3B33",
":. c #A63738",
">. c #A2333C",
",. c #AB3A3A",
"<. c #8D4216",
"1. c #87431C",
"2. c #8D451B",
"3. c #8E4A1D",
"4. c #944216",
"5. c #9C4413",
"6. c #9E4A15",
"7. c #9C441A",
"8. c #924D1C",
"9. c #9D5414",
"0. c #9F5815",
"q. c #94511D",
"w. c #A44613",
"e. c #A54717",
"r. c #AC4811",
"t. c #A3441C",
"y. c #A24D1A",
"u. c #B34B11",
"i. c #A15D15",
"p. c #A3531A",
"a. c #A5571B",
"s. c #AB531E",
"d. c #BA5213",
"f. c #A36115",
"g. c #A76A17",
"h. c #B8601F",
"j. c #8B4423",
"k. c #884927",
"l. c #8C4C2B",
"z. c #934324",
"x. c #9B4223",
"c. c #964827",
"v. c #9D442A",
"b. c #9D4B2C",
"n. c #8F512D",
"m. c #945423",
"M. c #9A5726",
"N. c #92532C",
"B. c #9A5C2C",
"V. c #824436",
"C. c #894738",
"Z. c #864A3D",
"A. c #8A4A3B",
"S. c #9D4534",
"D. c #964B33",
"F. c #934C3A",
"G. c #9C4D3B",
"H. c #865336",
"J. c #935333",
"K. c #9C5434",
"L. c #965933",
"P. c #9D5C36",
"I. c #94533C",
"U. c #9C513D",
"Y. c #965A3A",
"T. c #9B5C3A",
"R. c #A74527",
"E. c #AA4224",
"W. c #A44A23",
"Q. c #AA4E26",
"!. c #A3432A",
"~. c #A44C2C",
"^. c #B64F2E",
"/. c #A65726",
"(. c #AB5323",
"). c #AC532B",
"_. c #AB5C2C",
"`. c #B45C23",
"'. c #B65729",
"]. c #B45C2C",
"[. c #A64937",
"{. c #A44C3D",
"}. c #B84939",
"|. c #A45434",
" X c #AD5433",
".X c #A45A34",
"XX c #A3533C",
"oX c #AC533C",
"OX c #A65D38",
"+X c #AA5C3B",
"@X c #B85737",
"#X c #B25A33",
"$X c #B55C3B",
"%X c #9B602C",
"&X c #9D6435",
"*X c #9C633D",
"=X c #A9622A",
"-X c #AD622C",
";X c #BB6324",
":X c #B3622C",
">X c #BD642B",
",X c #AD6334",
"<X c #A6653A",
"1X c #AB633D",
"2X c #BC6334",
"3X c #B6663A",
"4X c #BA7639",
"5X c #CD560E",
"6X c #CE6B1D",
"7X c #C25B34",
"8X c #C3692B",
"9X c #C56A33",
"0X c #C07D3E",
"qX c #992A47",
"wX c #903143",
"eX c #A52D48",
"rX c #A63547",
"tX c #AB3953",
"yX c #854D44",
"uX c #855B46",
"iX c #955943",
"pX c #995945",
"aX c #A45A43",
"sX c #A95847",
"dX c #AB5D45",
"fX c #B45942",
"gX c #B45B43",
"hX c #B1544F",
"jX c #B45B4A",
"kX c #9B6243",
"lX c #9C624A",
"zX c #99664A",
"xX c #8F6650",
"cX c #826558",
"vX c #9B6654",
"bX c #AB6444",
"nX c #A86746",
"mX c #AC6C4B",
"MX c #B46445",
"NX c #B76547",
"BX c #AE724C",
"VX c #B5764A",
"CX c #B16952",
"ZX c #B37855",
"AX c #866F65",
"SX c #C4724A",
"DX c #C3823F",
"FX c #BD8146",
"GX c #C88A51",
/* pixels */
"W 5.5.6.A 5.W 5.5.7.W 5.5.A 6.5.5.5.5.Z p.5.W W 6.A W a.A 7.5.A A a.A 5.5.W W 6.A 5.5.A 5.5.5.W y.A A 5.5.W 7.A A 6.W 5.5.7.A 5.",
"V ~ ~ M J V ~ V M F H ~ H n M ~ ~ F F n X.G M F C ~ ~ V F ~ H F F V { G F J M ~ M F J G ~ J F n / G F F G { V F J C ~ F V F ~ H ",
"G { { M  .K { G G [ L L L Q G { { { ` V  .K G { F { { K K ` L { { V *.H K  .M ~ G _ ` H / ` _ K $.H G K G $.F `  .H { K K _ $.H ",
"OX[.*.W.ZX X$.+XmXZXR.&.[.ZXmX[.*.BXBX).O.|.1XZX%.*.[.ZX1X .R.ZXZX.X*.~..XBX^ =.+XmXnX^ %.nXBXnX=.%.~..X~.=.|.mXmXE.&.+XnXBX=.%.",
"Y.K.|.OXk.T.|.l.k.k.nX1X.Xk.l.K.|.l.k.Y.x.n.n.k.1X+XK.k.l.1XmXJ.k.n.|.<XT.k.NXnXK.k.J.BXBXJ.k.N.nXNX1XP.OXOXP.l.J.mX1XJ.l.l.mXnX",
"6.6.y.a.5.p.6.6.9.p.7.p.p.4.p.p.y.p.y.5.a.y.6.6.a.7.7.a.5.p.p.5.5.a.5.p.p.5.y.a.7.p.p.7.a.p.6.5.a.6.7.y.y.y.a.5.5.a.y.6.6.p.7.a.",
"8.3.8.8.3.8.2.8.m.q.<.8.8.2.8.8.8.8.8.<.M.8.8.2.q.3.2.q.2.8.8.<.2.M.<.8.8.3.8.8.2.q.q.<.8.8.8.2.q.3.3.8.8.8.q.<.<.q.8.8.8.8.j.8.",
"&Xm.3.m.*XL.M.*XkX&Xm.L.&X<X2.m.B.N.m.M.vX*XB.m.*X&X%X2.B.<Xj.m.B.zXL.M.B.kX&Xm.L.&XB.3.M.&X*XN.M.*XkXm.m.T.&X8.3.B.&XB.m.M.zX&X",
"gX).Q.).jXoX#XjXjXgX).oXgXNXt.).#X X).].hXgX$X).sXNX$Xt.oXNXW.).#XhXoX#X#XhXNX).oX$X$XW.].gXgX X#XjXjX X).gXgXQ.W. XgX X).].jXgX",
"rX*.!.[.eX>.,.eXqXrX!.>.>.rXR.-.>.:.-.,.qXrXrX-.O.rXrXE.@.tXR.-.@.qX,.,.>.qXtX-.@.rXrX%.*.rXrX:.-.eXeX-.-.>.rX*.%.:.rX-.-.,.eX>.",
"o.( ( ( O.o.) O.O.o.[ o.o.o.[ ( ) | | ( wXo.o.( O.o.) [ ) +.| S ( wX+.( ) wX+.( ' o.o.[ ( +.o.' ( O.wX( ( O.o.( ( ) o.' ' ( wXo.",
"8Xp.y.s.2X].`.2X2X8Xs._.].8X4.(.`.(.(.`.NX2X>X`.#X9X>X4.].9X4.s.].3X).`.:X$X9Xs.).>X>X7.`.>X>XQ.;X2X2X`.(.#X>Xy.6.`.2X(.(.`.9X].",
"3XM./.>XnX,X_.nXNX9XM.,X3X1Xp._.,X,X_.M.SXNX1X/.NX1X,X`..X3X/.M._.SXOX-X:XnXNX`..X3X3Xc.].3X3X.X:XnXmX_./.3X3XM.M.>XnX_._._.BX3X",
"nXL.B.9XxX1XP.vXvXSXJ.nXmXxX=X-X<X3X,XH.GXmXnXP.BXxXkX6XY.mX=Xl.I.GXiXOX,XvXzX:XY.mX1XN._.mXmX<X:XvXvXOXP.BXnXN.M.9XxX,X,XT.vXNX",
"t d s U d y s t t Y j t y H.6 7 y 7 7 uX8 6 t H.< d j U e s t e t 7.e y u g $ 0 d 7 y uX% t s g < j j t a s 6 d g Y d y u a t u ",
"@ @ @ @ @ @ @ @ @ @ @ @ @ @ @ @ @ @ @ @ @ @ @ @ @ @ @ @ @ @ @ @ @ @ @ @ @ @ @ @ @ @ @ @ @ @ @ @ @ @ @ @ @ @ @ @ @ @ @ @ @ @ @ @ ",
"; - - : - O : + O O : - O O m - - : ; O ; ; ; O ; ; ; - ; - - : : + O ; : -   ; - - - : O - ; : O - ; - - ; ; - - : - O - : O O ",
"3 < 2 N < < P 1 % % P 2 = = P 2 < 4 3 % 3 3 3 % 3 3 2 * 4 2 < 4 4 1 % 4 4 < % 4 < < 2 P % < 2 N % < 3 < < 3 4 < 2 4 1 < 1 P = % ",
": 4 , b : , b : ; : M : : : b , , b m 4 # : : 4 # # : I b : 4 N m : > b m : > m : : : M > : : b 9 : # , , m : 4 , b : , , b ; ; ",
" .S.G.aX$. ... X).~ +. .*.dX..| | S.{.aX=.*. ...#X{ K +.X.dXX.| | ~ XXG.S.&.:.S.|.{ _ +.[ XXXXX.| { %.S.X. . .S.G.XX{ | | [  X} ",
"oXG.F.F.oX{.G.F.F.aX[.XXU.A.G.{.{.G.F.F.gXoX{.F.F.U.{.@.U.A.U.{.{.aXF.F.G.oX@XG.F.XX{.{.U.F.F.U.{.oXXXF.G.{.oXG.F.F.oX{.{.U.F.U.",
"NXF.C.V.nXgXiXyXyXnXgXaXpXh I.sXjXiXC.V.NXgXdXiXyXpXsXsXI.h I.gXjXmXZ.C.F.dXNXU.Z.aXsXsXpXZ.Z.pXgXnXpXA.I.dXNXF.C.Z.nXsXsXpXyXpX",
"nXC.+.f +XNXC.x x I.NXXXF.l ..dXCXA.h f 1XNXdXC.x iXaXsXC.l D.NXCXnXz h V.+XSXF.z pXaXjXv.l l F.CXdXiXV.F.dXNXC.h l +XdXaXC.x I.",
"| U.aXaX-.| S.~.W.!.] X.[.|.G.] ] S.XXpX;.@.@.G.Q.} | s [.K.XX] ] %.|.G.G.*.O.G.|.X.| ] G.b.~.[.] X.!.G.G...' U.aXXX .....S.W.~.",
"F D D F V R v G G M J M D Q v G Q n M T V F F D G n M } n Q B J J n Q F M G R n G M M J M G G v ~ M n D D F F D D M V R G v Q M ",
"5 < 2 P * * 9 < % % I < * * I 2 < 8 8 % 5 5 5 % 5 5 5 < 8 < < 9 9 % % 8 8 % & 9 < * 2 P % * 5 9 % 1 5 < < 5 8 < 2 0 < * < P % % ",
". - - o . + o . . o o o o . o + + o o - . X o - X X o - X . - o X . + o o . o o o o o o + o o o O o X + + o o - - X . + + X . o ",
"m 3 > B ; , : ; : B + N N ; : N N m m 2 B : : 4 m + ; Z # : , ; # B 2 m m ; : m ; N N + N N : ; N ; + , > : : 3 > B + N N # ; N ",
"r.Y U 5X9 w.4.U 5.5X0 r.r.Y w.u.w.r.r.7 5Xw.5.U u.9 Y 5XU w.5.9 I 5X0 r.r.Y 5.u.I u.r.7 d.r.e.E d.Y Y 5.E w.w.9 I 5X9 r.r.U E u.",
"4.& 5 5X& I 0 6 0 5X$ 4.4.& I 4.<.4.<.$ u.I 8 7 4.& 6 5X6 <.0 & 5 5X$ 4.4.6 8 5.& 4.4.$ 7.<.Y 7 e.& 6 0 5 <.I & 6 d.& 4.4.6 7 y.",
"4XM.8./.FX3X_.FXGXDXM.,X4X4X<./.-X,X/./.GXFX4X/.VXDX4XE ,XGXj.m.-XGX<X-X:XFXDX/.<X4X4X3./.0XVX=X-XFXGX/./.4X4X8.2.-XFX,X/.=XGX4X",
"$XW.t.W.gX X).gXNX$XW. XoX$X7.W.).).~.(.CX$X#XQ.gX3X#X5. X3Xx.W.).NX X).).jX3XW. X$X#Xx.(.$X$X~.).gXNXQ.Q.oX$Xt.7.).$X).~.).NX$X",
",.E.t.E.,.;.R.>.rX,.E.;.;.;.%.%.=.=.&.E.eX:.;.E.>.,.;.e.=.,.%.t.=.eX;.E.=.eX,.E.=.;.;.%.R.,.:.*.E.,.rX&.&.;.;.t.e.R.:.=.&.R.rX,.",
"r A.I.Z.w p h w q r A.p r r lXZ.p h V.V.q w i Z.r r p nXp r iXC.p q p h p w w Z.p r i iXC.r w h V.w w V.V.i r I.iXh w h V.h q r ",
"9X(.s.`.7X'.;X@X@X9X`.^.'.9Xe.`.'.Q.(.8X}.@X'.;X}.9X8Xy.'.9X^ h.8X}.).;X;X}.9X`.).8X>Xt.;X7X'.Q.8X@X@X`.`.^.8Xs.s.`.7X'.(.;X7X'.",
"kXn.k.N.lXI.L.pXvXkXn.I.iXkX1.N.Y.J.n.L.vXlXT.N.pXlX*X1.I.nXk.n.Y.vXY.L.Y.pXzXn.I.kXT.j.N.kXlXJ.L.pXvXJ.N.iXkXk.j.L.lXJ.N.L.vXiX",
"x g s g cXz j cXAXc g z x x s g z k j f AXcXz g cXc z u z cXg s j AXuXj j cXcXg z x z s f cXcXk f cXAXj g cXx s s j cXj g j AXx ",
"0.0.i.f.9.i.0.i.i.f.0.i.i.9.f.i.i.i.i.6.g.i.0.0.f.9.9.g.0.i.i.9.0.g.9.i.f.0.i.f.0.f.f.9.f.f.i.0.f.9.9.i.i.0.f.0.0.f.0.i.i.i.0.i.",
"c.v.v.b.} b.x.z.j.z.b.~.b.} j.v.b.c.z.z.x.z.z.z.~.b.v.c.} ~.U.z.z.c.x.b.b.j.~.|.x.z.c.|.+Xc.z.z.|.|.~.b.b.b.b.z.c..X~.c.z.z.|.|.",
"<Xv.v.1Xn..X} .X*XY.~.~.b.Y.<Xv.!.Y.Y.<X_ |.T.J.|.!.v.*XK.v.|.Y.Y.nX} |.P.l.OX!.T.Y.K.~.~.K.Y.T.!.|.|.P.|.%.<XJ.J..X!.K.T.Y.R.~.",
"H ] ] V X.` ] S M { _ [ [ _ M ] ] { { F s S G  .J ( ] H K z.#.*.{ n +.{ $.@.H ) G `  .&.;. .{ G ' $.$.{ L o.F  .-.#...K K { @.{ ",
"G Q ! ! H ! T R R ^ G ! ! G R T Q ^ ! M c.R H R Q S D W.G ^ L G H 7.S ^ ^ K G ^ C ^ ^ G ^ ^ ! G } H H ! Q Q ! H K / R R R ^ K ^ "
};
