/* XPM */
static char * carpet2_xpm[] = {
"64 64 32 1",
" 	c #5217E1",
".	c #5C3332",
"+	c #5E2BBF",
"@	c #76343B",
"#	c #6B355D",
"$	c #5D3C48",
"%	c #70364E",
"&	c #5D3F5C",
"*	c #673E79",
"=	c #743B85",
"-	c #6B3CAE",
";	c #764342",
">	c #6E419D",
",	c #6C4B45",
"'	c #8C4D65",
")	c #855079",
"!	c #915430",
"~	c #795677",
"{	c #805767",
"]	c #7951DD",
"^	c #6C5E76",
"/	c #7A579A",
"(	c #6E5F68",
"_	c #7B598B",
":	c #986813",
"<	c #996967",
"[	c #8D68D8",
"}	c #936FCB",
"|	c #997C93",
"1	c #9B79BB",
"2	c #B29BDB",
"3	c #C3B7D7",
"    + +--  ++  ++   +  +>   +  ++    + +-   +   +   +  +>-   +  ",
"+  +>++--  >>+ ++  +-  +=  +-  ++  +-- +-  +1]  -  ]>- +>- +-}  ",
"+ +*~-+>- >__> -- +*_-++>++=_- --  >__++-++/3/+ >+ /__++-- -_|- ",
"+++&{=+>-+*||* --+-&{>++>++#<*+--++~{{++-++~<_-+=++_|{-+--+*{<>+",
"->=@<#->>>#<<%>-->*;;#>+->=@!#---->;!;>-->=;<{=----<<;=+++>#!<*-",
"[_$!!@>>=~@!!@^>-_;!!;&->~{!:@_[]-$!!!&-+*$!:!%/->/!!!$-++&@!:;*",
">^,!:;/>=^@::!^}>~;!:,&>>~{!:@_}[/{!:!(>-_,!:!;_[/_!:!,>+-^!!:;_",
"/_~@!{///_;!!@__/_);!{~//_~@!%__//~;!!~//_~@:;%_=/_<!!~/>>_;!!;_",
"'_*$<~/__/&<<&/''__$<)*_~/*&<&/'')_~{</_^_/{<{~_'')<<{//__/~{<~_",
";_*&{__||__{{&_;;~_~{_/_|_/_|~_@@~_~~~/_^_/~|~~~@'~|{~/_^~/_~|_~",
";~)~__^||^___~~..{~____^|^___~~..$~__//~{^____~{.${____^^^__//_&",
".,{_>_^{{^_>>~...,{_/_^^~^^//~,...%*//^^{^~/-*{...$*>/^^(^^_/-&.",
"..$~/^^~~^^**$.....~_^^^~^^&=$...$.#*_^^~^^&>#....$**_^^((^^*=$.",
"...,)(*~~*('',..@...|((&{_*$#..@@*$.%((&#&&&=$.$@##%%((&%%&($%.$",
"%$..<$*'{=$;;.$@@...<((&{*=$@.$@%=&.;<(&%~&$@.$&@##@@<(&%%&$;@.&",
"<##.,%)<<#@;,@%<<%%.,{{{<##@,,#'<~#.;,~~<)%@<,.&<{{,,;%{<<#@;,;%",
"|~~,,%'<<%@;,;{<<{{,.%''<@@@,,~{<{&$,;#{<%@@(,,~<{{,,;%{<|%@;,;%",
"~^^(;.%%%@,;;(|{%((,!.$%%@;,;(^~#*^(,@$%%%.,;((^~&&(;;,%%#..,;$^",
"_(^^{,@%%.${{^(^&^(~'..@%@.$~^^&&&^^~'..%@.${^^^&~^({',%%%..{{&^",
"^(^__$.$$.$||_^^^^^1_;..$..&|_^^^^^|1).;...&||~^^^^||_.....%~|~^",
"^^_11~..$.#12/^(^~_}/%.,...&21^^^^^11/%...$~32_^(^^22_%,,..#_3_^",
"(_}}_*$..$=/13/||11}/=*$.$&=13_|||2}1_=&.$*=122~|||}}/=$..#=/23^",
"|1}}_=~,,*=>/22||1}})=>~,_*>}22|||2[}_-*$~*>-122|||[>*-_{;>=>-32",
"}2}])_1<<}))=[311}[]{)/|<1/#>]3112[]>'>1<1/#/][311}]>'>1|<[)#>]2",
"}1}+=/1<'[/=-+211}[+*/}1<}}_-+211}[+-=}1'}}_-+]21}[+-*}1)'[/=-+}",
"11>++}}''[}-+-}11/-+-}}1'}[}+-}11[}++-11'}[}+->}|}[++-}1)'}}-+>[",
"1/>++[}''[}++>-11/>++[1/'}[}+=>11[/-+]2)'}[[ >=>|}[++]}1''}[] /-",
"}**>[[*@@=}[[*>=/**>}}1)@=>[[~>__-)>-[2)%=>[]_)>|>---[1)''/[[]~-",
">=*/}}#@@#}}}_===*/121)%@%*[}_>==-_/11_%@%*}[/_>/>>>}}_%.;#}}}~>",
"_--21)@##%*1}}>/1--2})%.#%%=}[>}1*-[}/#%%.%=}[-=1_=}}/&.@%;)/}>>",
"_[[}_%%##%%_1[>/1[[}/%.%#%%%}[>1_*[[1).%#%%#1[[=1_=}1).%##.%)1[>",
"=}}})%#&&%%)_}}__}}}#@%#&%%%/}}__=}}/%.###%%_1}}_=>/_%@#=*%@%_}-",
"=12>%@#&&#;%*}}//22>%@%#&##$)}1_*>2/=%.###%;)1}}_>>/);@#=*%@%)}-",
">22=;.*$$=.;#}2/>22=;@%*$**,'12_=-3_#;@#&##,@12}=--)#;@#*&#%@%2[",
">22/'%*$%=%%)}2/>22/'@%*$==$)12/>-3_)%@#$##$)11}=-[_)%@#&&#%%)2[",
"_}}2)######/11///}}2)%%#####}}///=111=%%%%##1}}>}//11);%@%%#*}}>",
"/->12).##.=111>//->22)#.#.#>}}>//=>}11#@%$#>}}>>/*=}11%@@@%=}}>>",
"==>>21#@@#}}}/-===>/21)$@%*[}_>**-_>}2|%@#*[[/*>)>>-[2)';;)}[[)-",
"}_*=[}=@%=}]-~>>=))>[}1#@=}2[~=/>-{=-[3~%_}}]_)>1----[2)%%1}[]{>",
"}//-+}1))11]+>}}}//-+}11{1}2-/}1}[/-+-21)1}}+>>}1[[++-2_~)}}[+/[",
"[[] =>2)_2/>-+}11[]+/>}3|21/++}1}[]++=]1|1}/++][}[[++=[1|)[/>+][",
"}[]+_>2))2*=>][11[]+~--|'11=-][11}]]-*+1|1}*-]]}1}[+-*-1|)[/=-][",
"1[]])=_''/**/[[1|}[['>-{;//#>[[111[[>)+_'/>#-}}}|1}->#-)''-**>}}",
"|}[})*#@@=*)_2[||}[})==%!*=#12[|||}}/'-#@==#_22}||1}/#-@@@-*)_2}",
"(_/[}*$..#=11}1|(1}[[=%$.&*>2}1|(^1}}>=;,##=311_|^_1}>#;,,#=/31_",
"^(^}}),...*11>|(^^/[-#@,$.&=2>|^((_}}>@;$@%/31/(^^^11>@;($@*13/^",
"~((^';@@@@${~^|~&^^^';;;%@.$|^(~&^(^~',;%@@{|^^^&^^^^{;;##.${|^^",
"~^^(;;@@@@,;,(^~)^((!;.;%@@,{(^~~((^{;,%%@@;{((^)~^~{;;%%#.;;{(^",
"~~^,;@%''%.;,,~{'^(,;.$''@@.,,~{{{({,;,{'%@;<,(~'~~{,;%''{%@;{(&",
"{~&,,.%<<#@,,,#{{~$,.$%'<%@@,,#{{{$,,;%{{%@@;,,&<{{,,;%'{<#@;;,#",
"{#%;,%#<<#,,,;#{{%%,,$&'<#%;,;#{<%$,,,_~<)#,;;@#<'%,,,#{{<*,,;;%",
"'%.@,(#{{&($$.#{{%..(^~~'#&,$.#)'@..,(_~{~&(%;@%|%@;;(&~~~_(,%;@",
"%;,.&^&#&((_*,.##,,$&^^_#&((*$.##@,$&^^_*^^(=^,@*@@)#_^_**^(^=,@",
"%;,~/^^^~(^/=~@%%;,*_^^&~((^*~.##@,**_^^&^^^>~,@#;@)=/^&**(^/>{@",
"$@;_>_^(|(_>>_@.$;'//_^^~(|//~;$&,;/>/^$^(^/-_{;$,{/>>^&&^(_/-);",
",@'/}/^|||/>>/;..;'}/_^(<||//|;.$('/>/&$((|/[/~;$,{/[>_$$(^/}-),",
";))_1/^|||/11_);@)___//^<|_/1_~@@{__1_>&(^__2/_)@;{111/^({__12_~",
"'__$|__||__||~_''__{|//_|__~|__'')/_||>_~//~|___'))|||/_^~/_||_~",
"/~~@!{////%!!@__/_{@!%*>/_~@!%^///&;!;&///~@!;&_//_;!;~/>/_$;!$*",
"/|<!:,/>/_;::;|//~<!:,~>>_{!:;|}}/{!::(>>_{!:!;_}/_!:!{>->^;::;~",
"[1<!:<>>>_;::;1}>_{!:<_->/_@:;1[->{!::|>-/~!:!'/[>/!:!{>+-|;!:;_",
"+>*@!#++++&;!#]]--*@!#> -+-%;&]]]+>;!!_+++>$!%*]]+-'!;=+ +-#@!&-",
"+++=%>+--+-)#- --++#%>++>++-)- -- +=##-+-++=<=+ -++=##++--+>*'- ",
"- +=~--=>++**- >> +=)++>*+++*+ =)  >**+-*++-{-+ =+ >*= >**++=~  "};
