/* XPM */
static char * carpet1_xpm[] = {
"64 64 32 1",
" 	c #3E1082",
".	c #421593",
"+	c #4A157D",
"@	c #501576",
"#	c #49178A",
"$	c #551A70",
"%	c #591A66",
"&	c #5F1960",
"*	c #661670",
"=	c #6D1666",
"-	c #4D1E9F",
";	c #701A5E",
">	c #5D1C94",
",	c #821573",
"'	c #801765",
")	c #761C53",
"!	c #522294",
"~	c #582288",
"{	c #5C2565",
"]	c #681F94",
"^	c #7B2070",
"/	c #6F2298",
"(	c #6D3365",
"_	c #842D6E",
":	c #8D2F58",
"<	c #903369",
"[	c #69419E",
"}	c #784382",
"|	c #724693",
"1	c #824475",
"2	c #814763",
"3	c #8D545D",
"33{@&);$(3333($;)%+{333(+%));${233(+$;)%%3332($%);@{3323{@;)&$$2",
"32{$===%{3333(%===$%232($%;;;%(233{$&;;&%2322(%&==%{2332{%&=&%%(",
"2(%%;**&%(22(&;**;&%{22{&**^;&(22($%)'^&%{22({&;*=;%{22(%&**;&%{",
"(%&&'^=&&{(({&;=^';&%(({&*=_'={(({%;)<<=&{(({{&=^=;&&(({&&*^;;&%",
"{%;)'_^*;%{{%==;__;)&%{&%*_1_=&{{%&)<::=&&{{%&;=_;=;&{%&;=^1';;$",
"$&))<1^*;%$$$=*_1_');$%&$*12_^%$$%;<<:3^=&$$$&;=1_=);%@&;=^2_';%",
"%;''<1}*=&%$&;^111<))&&&**}11_*$$&)<:22_=&%$%=;(}}_;)&$;=^}11_^&",
";;'_1}}(*;;&;;(}|2<');;=^}||1<^%&;'<31}1^=&&&=_1|}_^));;^_}|11^=",
";*'<}||1^=))=;1|[}1^*&;,2}[[|1<')=_1}|[}_^));^_}[|1^=;)=^2|[}1<,",
";*^1}||1^=))=_1|[}(**&;,31[[|2<')=^1|[[}<^));^_}[|1^*&;=_2|[}1<,",
"%==^1}}<^;;&;_1}|1_^=&&=_1}|11=&;;=_1}|1_=;&;^_1|}_^;&%;^_}|11^=",
"+&=^_11_;=@~&__111_';$$&*=111^*@@*;'_11_;=$~*;_121_;;$!%;^11<_=&",
"-$%=_<_';@>-~^'<2_';*!#$**23_*@#-~=='<<_;%.-~*)<31^;*!-@==(3<'=$",
"--~*'_;)&#---=:_^_;%>--+$$_<_*#---~%;''=&@.--~;<_^;$!---$==<<;%-",
"--.@='=;@.---*)=^;%#--..+$'';$----.@*',*$#!--.*)'=*#--!-#$*')&+-",
"#.--*);*#-.#-~%;)*#-.#.--$):;~-.#..-@*;$#!!..-#;:;+-. #.-+=)&@--",
"+.--@**#..  ..+**+.-. #--~*=*!-.##.-#@*#.-! .--$=*.-. +.-.$*@#-.",
"+#--#~>.-.++#..!~.--.+ .--~~#-- +#.--!~-.. @#--#~!--.+@ .-!~!--.",
"+#.--!--. +@ ---!--. ++.--!!---++ .--~~--. $+#--!---#@$ ..-!---#",
"@@#.!~!-. +@+.-!~--.+@++.-~[!-#@++#..[|--  $$+-![!-#@$$+ .![!-.@",
"@%+ ~|~! +@@@#-[|!.#$$@@#.|}~.@$ ++..||..  @$@.!|[.+$*$@ #~}!.#$",
"@$$@~~!! ++@+##~~!#@$@++@![[!#$+ +$@#~[#+  @$@ ![!#@$$@+++~[!#+$",
"+@$$#!!+  #+++ #!#+$$@ +$~!.!@$+  $$+#!++  +@++ !!+@@@~@+@~##+$@",
" @@@+++   ##+  ++ +@$~#~@$@ +@@~  +@+ #++  #~@  +@+@@~#+++$  ++@",
"#~~@++@     #  +@++@~##+@%@ +@~#  +@+  @+   +@  +@++~~##+@$++++~",
"##@@++@+  ..#  @++@~+###@$+ +@+   +@@  $+  .##  +++++!>#+@$++++#",
">#+~++@# .###  +++@~#># ~$+ +@####+~@  @# .###  +++##>>##@@++++ ",
">##+++@# #>>>  @@#+~>>>.#@@ ++##>##~@ +@#.>>##. +@##!]/##+@+++##",
"]>###++  >>>># ++###>]>##@@ ###>>>##+##@##>>>#. +@##>//>##~#####",
">>>#### #>>>># #+ #!]]>>#~+ ###>>>>## #+#>>>>>. ++#>>//]##~####>",
">]>>####>>>>]>.## #>]>]>### ##>>>>>#####>>]>>>> ###>//]]>#####>>",
"]>]]###>/>]]]>>###>]>]//>!~##>>>>>>>#~~#>]>/>]]#+#>/]//>]>###>>>",
"]>]>~~~]/>>]]]]~~~>>]///>~~~~]>>>>>>>~[!>]]]]//~$~>////]]>~~~>>>",
">/>>~[~]>/>>///~[~>>/]]>>~$|~>>>>]>>>||~>]]>///~|~/>////>]~|~]>>",
"]>>>~~~]>]>>/>>~~~>>/]>>>#$~~>>>>>>>>[|~>]>>>]]~$~>>////>>~[~>>>",
"]>>>#~##>>>>>>#~~#>]]]>>##++##>>>>>>>~~~>>>>>>>#+##>]//>>#~~#>>>",
">>>#### #>>>]# #+##>]/>>#~~ ###>>>>## #+#>>>>>#.#+#>]//>##~####>",
">>#+#+@  >>>># ++ ##>>>##~+ #~#>>>#~+ +@ #>>>#  ++##>]/>##~  ##>",
">#~~++@+ #>>#  @@+++#>> ~~+ +~~#>#~@@++$# #>### +@+##]]##+@+++~#",
"!~~~++@+  #>#  +++@~~!##~$+ +@~###~@@ +$# .#### ++++~~]##@@+++@#",
"#~~@++++ ####  +++@@~!##@$+ +@~# #@@+  @+  ###  ++++~~##++@  +@~",
"#~@@++++ ###+   +++@~~#+@$+#+@~#  @@+  ++  #~@   ++@~~#++++  ++~",
"~@$@ #    #~+   # +@@~#+$@#- @@## @@ .#++ #~~@+ .#+@~~~+++#. +@@",
"~@@@ !.   ~~@  .!  +@~#+$+!!.@$+# ++ !!   #~~+  -#++@~~+++#!# ++",
"@$@+#~!.  +~@ .![! +$@+++#[[!#@@#++  [[    ~@+ ![~ +$$~@+ ![!  $",
"@$+.!~!- +++@#-![!.#$$++#-[|!-+@ ++..[|..  +@+.![~.#$%$+ .![!.#$",
"@+!!-!--. @$+.--!---+@+#.--!--!@++#--!~-.. @+!--!--!@$$ .--!---+",
"+#--!!!-. +@ ..!!---#++.--!~!--++ .--!~-..#@#--!~!--#+$ .--]!--#",
" ..-~*@>..#+..#$%#.-.  --#**@.-# ..-#$*#... .-.~*@.-. +...@*@#--",
"#..#$=%~.-.#-#@*=$#..#.--$==*+-....#@**@.--#.-#*=%+..##.-#*=*@.-",
"...@*=*$>-..-#$*=*@#...-#&===$!..-.@%=*%#--.--~*==@#..#-.@***$#-",
"..+$===%~----~%===$+..-.$)=*==~.--#%;===@--.->***=%#...-#*=*=%@-",
"-#$&=^^&$----@*^^=%$#..~&'^*^;%.--$&=^^=%>-.#@=*,,=$#..-$='**=%+",
".@&;^^^=%>-.>$*^_=*%@##*)<_*^_;~->&;=^^^=~-.@*=*^'=%@#.#='_**=;%",
"+&==_11^**@@***(1_*%&@@;'32{1<'*+*;=1}}1**~@%=**(<^*%@#$=<2%=^^)",
"%;;_}}1_*=&&;={}}}=%=&&'<31|11<)&;;(1||1^=&&;=**}1_***%=^<1[}__)",
")^_1}||1,*))=;(|[}(^*;;,31|[|2:))=_1}[[}_*;);^_}[|1^*;)=^1|[|1<,",
")^'<}[|2^=));_1|[11^=;;,21[[|1<')=_21|[}_*));^_}[|2^=;)=^1|[}1<^",
";='_1||1^;;;;_1||1<^=;;^_1||}1_;);'_2}|1_=;;=^_1[|1^;;;;^_||11_=",
"%&;'111_;&&%&;_1}1_;;%&='11}1_=&&&;_111_'=&&&='1}}_==%$&;_1}1_'=",
"{&=;____=&{{%='_1_;=%{{&;_11_;;&%%=;=(1_;&%{&&=___=&&{{&=;___';&",
"({&&=,,)%%(({&;^,=;&%((&)',,=;;((%%;%*^^;$(((%&',,;&{(2{&;^,=;&%",
"2({&=^^;%(22(&;^,=&&{22{;;,,=;{23(%&%**=&{23({&=,^;%(23(%;^,=&&%",
"3({%=;;&%(332{;;;=%{(33(&)'=;;{332{%%**;&(332{{=';&{(332%&;==&%{"};
